<?xml version="1.0" encoding="UTF-8" standalone="no"?>
<svg
   xmlns:dc="http://purl.org/dc/elements/1.1/"
   xmlns:cc="http://creativecommons.org/ns#"
   xmlns:rdf="http://www.w3.org/1999/02/22-rdf-syntax-ns#"
   xmlns:svg="http://www.w3.org/2000/svg"
   xmlns="http://www.w3.org/2000/svg"
   xmlns:sodipodi="http://sodipodi.sourceforge.net/DTD/sodipodi-0.dtd"
   xmlns:inkscape="http://www.inkscape.org/namespaces/inkscape"
   version="1.0"
   width="16.000000pt"
   height="16.000000pt"
   viewBox="0 0 16.000000 16.000000"
   preserveAspectRatio="xMidYMid meet"
   id="svg8"
   sodipodi:docname="safari-pinned-tab.svg"
   inkscape:version="0.92.2 (5c3e80d, 2017-08-06)">
  <defs
     id="defs12" />
  <sodipodi:namedview
     pagecolor="#ffffff"
     bordercolor="#666666"
     borderopacity="1"
     objecttolerance="10"
     gridtolerance="10"
     guidetolerance="10"
     inkscape:pageopacity="0"
     inkscape:pageshadow="2"
     inkscape:window-width="1366"
     inkscape:window-height="705"
     id="namedview10"
     showgrid="false"
     inkscape:zoom="22.125"
     inkscape:cx="4.6894807"
     inkscape:cy="16.583473"
     inkscape:window-x="-8"
     inkscape:window-y="-8"
     inkscape:window-maximized="1"
     inkscape:current-layer="svg8" />
  <metadata
     id="metadata2">
Created by potrace 1.11, written by Peter Selinger 2001-2013
<rdf:RDF>
  <cc:Work
     rdf:about="">
    <dc:format>image/svg+xml</dc:format>
    <dc:type
       rdf:resource="http://purl.org/dc/dcmitype/StillImage" />
  </cc:Work>
</rdf:RDF>
</metadata>
  <g
     id="g840"
     transform="matrix(0.03586248,0,0,-0.03502804,7.8289632,3.3511528)"
     style="fill:#000080;stroke-width:28.21446991">
    <path
       d="m 0,0 c 0,0 2.236,14.224 9.02,17.364 0,0 11.12,7.808 20.508,-4.376 0,0 4.473,-4.789 3.7,-12.6 -0.04,-0.416 -1.012,-3.817 -0.619,-3.712 4.021,1.083 1.364,-4.745 0.387,-5.8 -1.934,-2.087 -1.934,-2.087 -3.241,-1.655 0,0 -4.772,-6.341 -5.77,-9.617 -1.1,-3.614 0.735,-4.817 0.735,-4.817 0,0 4.712,0.288 8.082,-2.038 3.371,-2.325 17.322,1.747 24.006,-2.322 6.683,-4.068 35.814,-2.051 38.43,-2.051 2.616,0 20.565,12.806 20.565,12.806 0,0 13.564,8.086 15.887,10.554 1.837,1.951 32.354,16.26 30.048,10.771 0,0 -10.567,-5.363 -11.728,-5.654 -0.339,-0.085 2.042,-0.734 1.921,-2.305 -0.08,-1.043 -2.634,-1.472 -1.59,-2.147 3.894,-2.519 -0.02,-3.267 0.821,-3.947 3.733,-3.018 -1.907,-4.656 -1.907,-4.656 0,0 -3.809,-1.163 -5.262,-1.163 -1.455,0 -4.36,-0.58 -4.36,-0.58 0,0 -1.162,-0.582 -2.906,-1.163 -1.743,-0.581 -4.069,-1.163 -4.069,-1.163 0,0 -0.292,0 -1.744,-1.453 -1.453,-1.453 -7.78,-8.512 -9.88,-10.543 -2.435,-2.356 -13.02,-9.287 -13.02,-9.287 0,0 -3.96,-2.349 -6.349,-4.082 -0.707,-0.513 -0.657,-2.005 -8.235,-0.923 -1.932,0.276 -10.078,-0.416 -10.078,-0.416 0,0 -13.825,-6.152 -31.195,1.324 0,0 -4.94,0.656 -5.232,-2.531 -0.291,-3.185 -1.743,-6.672 -2.615,-10.741 -0.871,-4.069 1.743,-11.625 1.743,-11.625 0,0 -9.299,-34.293 -9.589,-36.618 -0.291,-2.325 8.136,-9.301 8.428,-11.334 0.29,-2.035 0.872,-17.438 0.872,-17.438 0,0 -2.617,-12.205 -0.582,-14.24 0,0 1.452,-0.872 -1.453,-3.197 -2.907,-2.325 -2.616,-3.487 -2.616,-3.487 0,0 0.29,-18.019 -0.872,-24.122 -1.161,-6.103 -3.196,-33.131 -9.88,-34.584 0,0 -5.231,-1.162 -8.72,4.069 0,0 -3.778,2.906 -3.487,4.94 l 0.291,2.036 c 0,0 -3.488,6.683 -2.326,9.88 l -0.58,9.009 c 0,0 -2.036,1.453 -2.616,2.615 -0.581,1.163 -1.163,3.488 -1.163,3.488 0,0 -3.779,-15.112 -3.051,-18.018 0.727,-2.907 0,-9.882 0,-9.882 0,0 1.598,-5.159 0,-8.247 -1.6,-3.087 -1.89,-7.447 -1.89,-7.447 0,0 2.906,-7.846 1.89,-12.206 -1.018,-4.358 -3.633,-22.377 -3.633,-22.377 0,0 -0.872,-24.412 0,-26.156 0.873,-1.744 5.812,-6.683 5.232,-9.009 -0.583,-2.325 1.161,-3.779 2.034,-5.813 0.871,-2.032 -0.582,-6.103 -0.582,-6.103 0,0 3.197,-4.066 1.743,-4.649 -1.452,-0.582 -12.204,-4.068 -13.658,-5.23 -1.452,-1.164 -5.814,0.87 -6.394,2.615 -0.582,1.744 0.58,4.359 0,5.52 -0.582,1.163 -0.957,3.49 -0.957,3.49 l -0.932,4.357 v 4.36 c 0,0 2.034,1.743 0.726,3.488 -1.307,1.744 0.364,4.067 0.364,4.067 l 1.199,1.745 c 0,0 -6.302,45.046 -6.012,49.114 0.29,4.069 0.626,15.114 2.079,15.114 1.453,0 1.477,12.495 1.186,15.111 -0.292,2.615 -1.561,3.968 -2.713,6.875 -1.155,2.905 -8.642,24.843 -6.861,42.53 0.719,7.136 -0.27,-5.086 -6.102,1.935 -1.928,2.321 -4.861,0.36 -4.861,0.36 0,0 -10.082,-1.98 -1.981,9.001 2.623,3.555 3.232,11.37 3.211,12.388 -0.037,1.71 1.887,1.31 1.887,1.31 0,0 6.759,16.274 8.503,16.274 1.743,0 3.452,2.907 3.452,2.907 l -1.034,3.197 c 0,0 -2.941,4.069 -4.974,6.103 -2.035,2.035 -2.068,21.215 -2.068,21.215 v 17.438 c 0,0 1.477,9.008 1.477,10.172 0,1.162 -6.018,12.496 -7.761,13.658 -1.744,1.163 -23.018,1.691 -37.518,15.295 0,0 -2.033,0.759 -6.267,2.453 -0.881,0.353 -2.998,4.101 -3.978,4.688 -10.055,6.013 -22.816,20.87 -27.07,34.406 0,0 -2.399,4.189 -3.27,4.189 -0.873,0 -8.326,3.391 -10.124,4.466 -4.51,2.697 -8.393,7.426 -5.96,9.098 0.754,0.519 -0.861,2.408 -0.055,4.05 0.343,0.7 0.787,0.697 1.221,1.331 0.554,0.814 0.049,2.863 0.432,3.573 0.695,1.283 2.517,0.889 2.55,0.511 l -6.892,8.439 c 0,0 0.831,3.372 6.051,-1.909 2.149,-2.173 7.635,-6.224 11.951,-11.446 5.824,-7.044 10.427,-15.3 10.427,-15.3 0,0 9.845,-8.151 17.21,-15.592 9.015,-9.108 15.95,-17.901 16.793,-18.655 2.302,-2.052 8.203,-1.561 29.934,-10.73 1.797,-0.758 7.181,2.647 24.122,-5.51 0,0 4.578,2.505 9.009,4.365 2.733,1.148 0.872,5.525 0.872,5.525 0,0 -0.913,6.421 -1.743,6.685 -0.435,0.139 -1.745,2.037 -1.745,2.037 0,0 -1.311,6.519 -0.292,7.266 0.939,0.686 2.618,-0.291 2.618,-0.291 z"
       style="fill:#000080;fill-opacity:1;fill-rule:nonzero;stroke:none;stroke-width:28.21446991"
       id="path842"
       inkscape:connector-curvature="0" />
  </g>
</svg>
