<?xml version="1.0" encoding="UTF-8"?>
<svg version="1.1" viewBox="0 0 320.04 320.04" xml:space="preserve" xmlns="http://www.w3.org/2000/svg" xmlns:cc="http://creativecommons.org/ns#" xmlns:dc="http://purl.org/dc/elements/1.1/" xmlns:rdf="http://www.w3.org/1999/02/22-rdf-syntax-ns#"><metadata><rdf:RDF><cc:Work rdf:about=""><dc:format>image/svg+xml</dc:format><dc:type rdf:resource="http://purl.org/dc/dcmitype/StillImage"/><dc:title/></cc:Work></rdf:RDF></metadata><path id="filledBG" d="m1.9933 160.02a158.7 158.7 0 0 0 158.7 158.7 158.7 158.7 0 0 0 158.7-158.7 158.7 158.7 0 0 0-158.7-158.7 158.7 158.7 0 0 0-158.7 158.7z" fill="#f9f9f9" stroke-width=".6"><title>filledBG</title></path><path id="background" d="m319.4 160.02a158.7 158.7 0 0 1-158.7 158.7 158.7 158.7 0 0 1-158.7-158.7 158.7 158.7 0 0 1 158.7-158.7 158.7 158.7 0 0 1 158.7 158.7z" fill="none" stroke="#000080" stroke-width=".6"><title>background</title></path><path id="runner" d="m149.45 78.742s1.3885-8.8326 5.6011-10.782c0 0 6.9051-4.8485 12.735 2.7173 0 0 2.7776 2.9738 2.2976 7.8242-0.0248 0.25832-0.62841 2.3702-0.38439 2.305 2.4969-0.67249 0.847 2.9465 0.24032 3.6016-1.2009 1.296-1.2009 1.296-2.0125 1.0277 0 0-2.9632 3.9375-3.583 5.9718-0.68307 2.2442 0.4564 2.9912 0.4564 2.9912s2.926-0.17884 5.0186 1.2655c2.0933 1.4437 10.756-1.0848 14.907 1.4419 4.1499 2.5261 22.239 1.2736 23.864 1.2736 1.6244 0 12.77-7.9521 12.77-7.9521s8.4228-5.0211 9.8652-6.5536c1.1407-1.2115 20.091-10.097 18.659-6.6884 0 0-6.5617 3.3302-7.2827 3.5109-0.21051 0.0528 1.268 0.45578 1.1929 1.4313-0.0497 0.64766-1.6356 0.91406-0.98732 1.3332 2.418 1.5642-0.012 2.0287 0.5098 2.451 2.3181 1.8741-1.1842 2.8912-1.1842 2.8912s-2.3652 0.72217-3.2675 0.72217c-0.90349 0-2.7074 0.36016-2.7074 0.36016s-0.72156 0.3614-1.8045 0.72219c-1.0823 0.36077-2.5267 0.72217-2.5267 0.72217s-0.18132 0-1.083 0.90227c-0.90225 0.90225-4.8311 5.2856-6.1351 6.5468-1.512 1.463-8.085 5.7669-8.085 5.7669s-2.459 1.4586-3.9425 2.5348c-0.43903 0.31855-0.40797 1.245-5.1136 0.57315-1.1997-0.17139-6.2581 0.25832-6.2581 0.25832s-8.5848 3.8202-19.371-0.82216c0 0-3.0676-0.40735-3.2489 1.5717-0.18071 1.9778-1.0824 4.1431-1.6238 6.6698-0.54085 2.5267 1.0824 7.2187 1.0824 7.2187s-5.7744 21.295-5.9544 22.738c-0.18071 1.4438 5.0522 5.7756 5.2335 7.038 0.18008 1.2636 0.54148 10.828 0.54148 10.828s-1.6251 7.5789-0.3614 8.8425c0 0 0.90164 0.54148-0.90225 1.9852-1.8052 1.4437-1.6245 2.1653-1.6245 2.1653s0.18008 11.189-0.54148 14.979c-0.72093 3.7898-1.9846 20.573-6.1351 21.475 0 0-3.2483 0.72156-5.4148-2.5267 0 0-2.346-1.8045-2.1653-3.0676l0.18069-1.2643s-2.1659-4.1499-1.4444-6.1351l-0.36016-5.5943s-1.2643-0.90226-1.6244-1.6238c-0.36079-0.72218-0.72219-2.1659-0.72219-2.1659s-2.3466 9.384-1.8946 11.189c0.45144 1.8052 0 6.1364 0 6.1364s0.99231 3.2036 0 5.1211c-0.99353 1.9169-1.1736 4.6243-1.1736 4.6243s1.8045 4.8721 1.1736 7.5795c-0.63213 2.7062-2.256 13.895-2.256 13.895s-0.54148 15.159 0 16.242c0.54211 1.083 3.609 4.1499 3.2489 5.5943-0.36201 1.4437 0.72095 2.3466 1.263 3.6097 0.54087 1.2618-0.3614 3.7897-0.3614 3.7897s1.9852 2.5248 1.0824 2.8869c-0.90164 0.3614-7.5782 2.5261-8.4811 3.2476-0.90164 0.7228-3.6103-0.54024-3.9704-1.6238-0.3614-1.083 0.36016-2.7068 0-3.4277-0.3614-0.72219-0.59427-2.1672-0.59427-2.1672l-0.57873-2.7055v-2.7074s1.263-1.0823 0.45081-2.1659c-0.8116-1.083 0.22604-2.5254 0.22604-2.5254l0.74453-1.0836s-3.9133-27.972-3.7332-30.498c0.18008-2.5267 0.38872-9.3852 1.291-9.3852s0.91716-7.759 0.73647-9.3834c-0.18132-1.6238-0.96934-2.464-1.6847-4.2691-0.71722-1.8039-5.3664-15.427-4.2604-26.41 0.44648-4.4312-0.16766 3.1582-3.7891-1.2016-1.1972-1.4412-3.0185-0.22355-3.0185-0.22355s-6.2606 1.2295-1.2301-5.5893c1.6288-2.2075 2.007-7.0604 1.9939-7.6925-0.0229-1.0618 1.1718-0.81346 1.1718-0.81346s4.1971-10.106 5.28-10.106c1.0824 0 2.1436-1.8052 2.1436-1.8052l-0.64208-1.9852s-1.8262-2.5267-3.0887-3.7897c-1.2637-1.2637-1.2842-13.174-1.2842-13.174v-10.828s0.91716-5.5936 0.91716-6.3165c0-0.72156-3.737-7.7596-4.8193-8.4811-1.083-0.72218-14.293-1.05-23.297-9.4977 0 0-1.2624-0.47131-3.8916-1.5232-0.54707-0.2192-1.8617-2.5466-2.4702-2.9111-6.2438-3.7338-14.168-12.96-16.809-21.365 0 0-1.4897-2.6012-2.0306-2.6012-0.5421 0-5.1701-2.1057-6.2866-2.7732-2.8006-1.6747-5.2118-4.6113-3.7009-5.6495 0.4682-0.32228-0.53466-1.4953-0.0341-2.5149 0.21298-0.43468 0.4887-0.43281 0.7582-0.8265 0.34401-0.50547 0.0304-1.7778 0.26825-2.2187 0.43157-0.79669 1.563-0.55204 1.5835-0.31732l-4.2797-5.2403s0.51603-2.0939 3.7575 1.1854c1.3344 1.3494 4.7411 3.8649 7.4211 7.1076 3.6165 4.3741 6.4748 9.5007 6.4748 9.5007s6.1134 5.0615 10.687 9.6821c5.598 5.6557 9.9044 11.116 10.428 11.584 1.4295 1.2742 5.0938 0.96934 18.588 6.663 1.1159 0.47069 4.4592-1.6437 14.979 3.4215 0 0 2.8428-1.5555 5.5943-2.7105 1.6971-0.71287 0.54148-3.4308 0.54148-3.4308s-0.56693-3.9872-1.0823-4.1511c-0.27012-0.0863-1.0836-1.2649-1.0836-1.2649s-0.81408-4.0481-0.18132-4.5119c0.58308-0.42597 1.6257 0.18071 1.6257 0.18071z" fill="none" stroke="#000080" stroke-width=".7"><title>runner</title></path><g id="filled" transform="translate(.67467 -.00076)"><circle cx="160.02" cy="160.02" r="158.7" fill="#0ff" opacity=".36" stroke="#f9f9f9" stroke-width="2.6306"><title>background</title></circle><path d="m148.78 78.742s1.3885-8.8326 5.6011-10.782c0 0 6.9051-4.8485 12.735 2.7173 0 0 2.7776 2.9738 2.2976 7.8241-0.0248 0.25832-0.62841 2.3702-0.38439 2.305 2.4969-0.67249 0.847 2.9465 0.24032 3.6016-1.2009 1.2959-1.2009 1.2959-2.0125 1.0277 0 0-2.9632 3.9375-3.583 5.9718-0.68307 2.2442 0.4564 2.9912 0.4564 2.9912s2.926-0.17884 5.0186 1.2655c2.0933 1.4437 10.756-1.0848 14.907 1.4419 4.1499 2.5261 22.239 1.2736 23.864 1.2736 1.6244 0 12.77-7.9521 12.77-7.9521s8.4228-5.0211 9.8652-6.5537c1.1407-1.2115 20.091-10.097 18.659-6.6884 0 0-6.5617 3.3302-7.2827 3.5109-0.21051 0.0528 1.268 0.45579 1.1929 1.4313-0.0497 0.64767-1.6356 0.91407-0.98732 1.3332 2.418 1.5642-0.012 2.0287 0.5098 2.4509 2.3181 1.8741-1.1842 2.8912-1.1842 2.8912s-2.3652 0.72217-3.2675 0.72217c-0.90349 0-2.7074 0.36016-2.7074 0.36016s-0.72156 0.3614-1.8045 0.72219c-1.0823 0.36077-2.5267 0.72217-2.5267 0.72217s-0.18132 0-1.083 0.90227c-0.90225 0.90225-4.8311 5.2856-6.1351 6.5468-1.512 1.463-8.085 5.7669-8.085 5.7669s-2.459 1.4586-3.9425 2.5348c-0.43903 0.31855-0.40797 1.245-5.1136 0.57315-1.1997-0.17139-6.2581 0.25832-6.2581 0.25832s-8.5848 3.8202-19.371-0.82216c0 0-3.0676-0.40735-3.2489 1.5717-0.18071 1.9778-1.0824 4.1431-1.6238 6.6698-0.54085 2.5267 1.0824 7.2187 1.0824 7.2187s-5.7744 21.295-5.9544 22.738c-0.18071 1.4438 5.0522 5.7756 5.2335 7.038 0.18008 1.2636 0.54148 10.828 0.54148 10.828s-1.6251 7.5789-0.3614 8.8425c0 0 0.90164 0.54148-0.90225 1.9852-1.8052 1.4437-1.6245 2.1653-1.6245 2.1653s0.18008 11.189-0.54148 14.979c-0.72093 3.7898-1.9846 20.573-6.1351 21.475 0 0-3.2483 0.72156-5.4148-2.5267 0 0-2.346-1.8045-2.1653-3.0676l0.18069-1.2643s-2.1659-4.1499-1.4444-6.1351l-0.36016-5.5943s-1.2643-0.90226-1.6244-1.6238c-0.36079-0.72218-0.72219-2.1659-0.72219-2.1659s-2.3466 9.384-1.8946 11.189c0.45144 1.8052 0 6.1364 0 6.1364s0.99231 3.2036 0 5.1211c-0.99353 1.9169-1.1736 4.6243-1.1736 4.6243s1.8045 4.8721 1.1736 7.5795c-0.63213 2.7062-2.256 13.895-2.256 13.895s-0.54148 15.159 0 16.242c0.54211 1.083 3.609 4.1499 3.2489 5.5943-0.36201 1.4437 0.72095 2.3466 1.263 3.6097 0.54087 1.2618-0.3614 3.7897-0.3614 3.7897s1.9852 2.5248 1.0824 2.8869c-0.90164 0.3614-7.5782 2.5261-8.4811 3.2476-0.90164 0.7228-3.6103-0.54024-3.9704-1.6238-0.3614-1.083 0.36016-2.7068 0-3.4277-0.3614-0.72219-0.59427-2.1672-0.59427-2.1672l-0.57873-2.7055v-2.7074s1.263-1.0823 0.45081-2.1659c-0.8116-1.083 0.22604-2.5254 0.22604-2.5254l0.74453-1.0836s-3.9133-27.972-3.7332-30.498c0.18008-2.5267 0.38872-9.3852 1.291-9.3852s0.91716-7.759 0.73647-9.3834c-0.18132-1.6238-0.96934-2.464-1.6847-4.2691-0.71722-1.8039-5.3664-15.427-4.2604-26.41 0.44648-4.4312-0.16766 3.1582-3.7891-1.2016-1.1972-1.4412-3.0185-0.22355-3.0185-0.22355s-6.2606 1.2295-1.2301-5.5893c1.6288-2.2075 2.007-7.0604 1.9939-7.6925-0.0229-1.0618 1.1718-0.81346 1.1718-0.81346s4.1971-10.106 5.28-10.106c1.0824 0 2.1436-1.8052 2.1436-1.8052l-0.64208-1.9852s-1.8262-2.5267-3.0887-3.7897c-1.2637-1.2637-1.2842-13.174-1.2842-13.174v-10.828s0.91716-5.5936 0.91716-6.3165c0-0.72156-3.737-7.7596-4.8193-8.4811-1.083-0.72218-14.293-1.05-23.297-9.4976 0 0-1.2624-0.47131-3.8916-1.5232-0.54707-0.2192-1.8617-2.5466-2.4702-2.9111-6.2438-3.7339-14.168-12.96-16.81-21.365 0 0-1.4897-2.6012-2.0305-2.6012-0.54211 0-5.1701-2.1057-6.2866-2.7732-2.8006-1.6747-5.2118-4.6113-3.7009-5.6495 0.4682-0.32228-0.53465-1.4953-0.03413-2.5149 0.21299-0.43468 0.48871-0.43281 0.7582-0.82651 0.34401-0.50547 0.0304-1.7778 0.26825-2.2187 0.43157-0.79669 1.563-0.55204 1.5835-0.31732l-4.2797-5.2403s0.51603-2.0939 3.7575 1.1854c1.3345 1.3494 4.7411 3.8649 7.4211 7.1076 3.6165 4.3741 6.4748 9.5007 6.4748 9.5007s6.1134 5.0615 10.687 9.6821c5.598 5.6557 9.9044 11.116 10.428 11.584 1.4295 1.2742 5.0938 0.96933 18.588 6.6629 1.1159 0.47069 4.4592-1.6437 14.979 3.4215 0 0 2.8428-1.5555 5.5943-2.7105 1.6971-0.71287 0.54148-3.4308 0.54148-3.4308s-0.56693-3.9872-1.0823-4.1511c-0.27012-0.08627-1.0836-1.2649-1.0836-1.2649s-0.81408-4.0481-0.18132-4.5119c0.58308-0.42597 1.6257 0.18071 1.6257 0.18071z" fill="#000080" stroke="#000080" stroke-width=".7"><title>runner</title></path><path id="shadow" d="m171.43 296.88c-7.949-7.6604-16.401-15.857-18.783-18.215l-4.33-4.2868 4.6253-1.7688c3.2024-1.2247 4.5513-2.0261 4.3847-2.6052-0.1324-0.46-0.44051-2.1653-0.68483-3.7895-0.71692-4.7661-1.4508-6.9827-3.1739-9.5864-1.6206-2.4489-1.6214-2.4549-1.364-11.198 0.14162-4.8111 0.75264-11.86 1.3578-15.663 0.8876-5.579 0.9768-7.5183 0.46154-10.034-0.4925-2.4042-0.45874-3.7279 0.14748-5.783 0.5116-1.7343 0.69823-4.6248 0.53438-8.2761-0.22163-4.9388 0.45018-11.797 1.2886-13.153 0.1601-0.25909 0.80153 0.17776 1.4253 0.97079 0.83354 1.0597 1.1342 2.3855 1.1342 5.0017 0 1.9579 0.29615 4.3081 0.65807 5.2226 0.36193 0.91449 0.69417 2.2489 0.73829 2.9654 0.0441 0.71648 1.0993 2.3776 2.3449 3.6915 2.7837 2.9362 5.6674 3.3119 7.221 0.94076 2.442-3.7269 4.9777-18.494 4.9821-29.014 3e-3 -6.0184 0.10907-6.6416 1.3316-7.7904 1.2817-1.2043 1.3289-1.6228 1.3289-11.768v-10.519l-5.5271-6.7352 2.3297-8.7404c1.2814-4.8072 2.6199-9.8578 2.9746-11.224 0.44407-1.7102 0.46409-3.5322 0.0644-5.8525-0.32141-1.8654-0.36653-4.1841-0.1012-5.195 0.26361-1.0042 0.77236-2.9554 1.1305-4.336 0.56519-2.1786 0.86272-2.5093 2.2527-2.5038 0.88082 4e-3 2.9062 0.4022 4.5009 0.88595 3.3646 1.0207 10.947 1.1598 13.938 0.25571 1.1348-0.34311 4.3225-0.63486 7.0837-0.64828l5.0204-0.0243 6.3993-4.1906c3.9529-2.5885 7.812-5.7164 10.095-8.1818 3.6967-3.9927 6.808-5.7453 10.38-5.8467 0.81212-0.02293 2.4068-0.35917 3.5438-0.74689 1.8538-0.63216 2.0737-0.93545 2.1302-2.9373 0.0347-1.2278-0.19307-2.3906-0.50604-2.584-0.33399-0.2064-0.25369-0.54656 0.19433-0.82347 0.5605-0.34641 0.59184-0.67996 0.118-1.2551-0.50746-0.61591 0.0413-1.0849 2.569-2.1944l3.2144-1.4111 4.5566 4.3799c26.756 25.719 62.366 64.251 62.649 64.989 10.514 78.038-47.737 147.82-124.06 167.1-0.51415 0-12.632-9.863-20.581-17.523z" fill="#008080" opacity=".36" stroke="#f9f9f9" stroke-width="0"><title>shadow</title></path></g></svg>
