<?xml version="1.0" encoding="UTF-8" standalone="no"?>
<svg
   xmlns:dc="http://purl.org/dc/elements/1.1/"
   xmlns:cc="http://creativecommons.org/ns#"
   xmlns:rdf="http://www.w3.org/1999/02/22-rdf-syntax-ns#"
   xmlns:svg="http://www.w3.org/2000/svg"
   xmlns="http://www.w3.org/2000/svg"
   xmlns:sodipodi="http://sodipodi.sourceforge.net/DTD/sodipodi-0.dtd"
   xmlns:inkscape="http://www.inkscape.org/namespaces/inkscape"
   viewBox="0 0 320.03775 320.03771"
   height="320.03778"
   width="320.03778"
   xml:space="preserve"
   id="svg2"
   version="1.1"
   sodipodi:docname="runner1_big.svg"
   inkscape:version="0.92.2 (5c3e80d, 2017-08-06)"><sodipodi:namedview
     pagecolor="#ffffff"
     bordercolor="#666666"
     borderopacity="1"
     objecttolerance="10"
     gridtolerance="10"
     guidetolerance="10"
     inkscape:pageopacity="0"
     inkscape:pageshadow="2"
     inkscape:window-width="785"
     inkscape:window-height="403"
     id="namedview172"
     showgrid="false"
     inkscape:zoom="0.73741294"
     inkscape:cx="-107.13129"
     inkscape:cy="160.01889"
     inkscape:window-x="312"
     inkscape:window-y="112"
     inkscape:window-maximized="0"
     inkscape:current-layer="svg2" /><metadata
     id="metadata8"><rdf:RDF><cc:Work
         rdf:about=""><dc:format>image/svg+xml</dc:format><dc:type
           rdf:resource="http://purl.org/dc/dcmitype/StillImage" /><dc:title /></cc:Work></rdf:RDF></metadata><defs
     id="defs6"><clipPath
       id="clipPath18"
       clipPathUnits="userSpaceOnUse"><path
         id="path16"
         d="M 0.321,0 H 800 V 799.999 H 0.321 Z" /></clipPath><clipPath
       id="clipPath26"
       clipPathUnits="userSpaceOnUse"><path
         id="path24"
         d="M -80.1392,875.959 H 887.342 V -89.7617 H -80.1392 Z" /></clipPath><clipPath
       id="clipPath30"
       clipPathUnits="userSpaceOnUse"><path
         id="path28"
         d="M -80.1392,875.959 H 887.342 V -89.7617 H -80.1392 Z" /></clipPath><radialGradient
       id="radialGradient48"
       spreadMethod="pad"
       gradientTransform="matrix(0,-649.75983,650.94403,0,403.5,393)"
       gradientUnits="userSpaceOnUse"
       r="1"
       cy="0"
       cx="0"
       fy="0"
       fx="0"><stop
         id="stop36"
         offset="0"
         style="stop-opacity:1;stop-color:#231f20" /><stop
         id="stop38"
         offset="0.574443"
         style="stop-opacity:1;stop-color:#231f20" /><stop
         id="stop40"
         offset="0.61136583"
         style="stop-opacity:1;stop-color:#231f20" /><stop
         id="stop42"
         offset="0.797713"
         style="stop-opacity:1;stop-color:#b2b4b6" /><stop
         id="stop44"
         offset="0.9096649"
         style="stop-opacity:1;stop-color:#f1f2f2" /><stop
         id="stop46"
         offset="1"
         style="stop-opacity:1;stop-color:#f1f2f2" /></radialGradient><mask
       id="mask50"
       height="1"
       width="1"
       y="0"
       x="0"
       maskUnits="userSpaceOnUse"><g
         id="g74"><g
           style="opacity:0.30000299"
           id="g72"
           clip-path="url(#clipPath26)"><path
             id="path52"
             style="fill:#000000;fill-opacity:1;fill-rule:nonzero;stroke:none"
             d="M -80.139,875.959 H 887.342 V -89.762 H -80.139 Z" /><g
             id="g70"><g
               id="g54" /><g
               id="g68"><g
                 id="g66"
                 clip-path="url(#clipPath30)"><g
                   id="g64"><g
                     id="g62"><g
                       id="g60"><g
                         id="g58"><path
                           id="path56"
                           style="fill:url(#radialGradient48);stroke:none"
                           d="M 887.342,-89.762 H -80.139 v 965.721 h 967.481 z" /></g></g></g></g></g></g></g></g></g></mask><clipPath
       id="clipPath82"
       clipPathUnits="userSpaceOnUse"><path
         id="path80"
         d="M -80.1392,875.959 H 887.342 V -89.7617 H -80.1392 Z" /></clipPath><clipPath
       id="clipPath110"
       clipPathUnits="userSpaceOnUse"><path
         id="path108"
         d="M 0,800 H 800 V 0 H 0 Z" /></clipPath><clipPath
       id="clipPath118"
       clipPathUnits="userSpaceOnUse"><path
         id="path116"
         d="M 1,305 H 800 V 183 H 1 Z" /></clipPath><radialGradient
       id="radialGradient142"
       spreadMethod="pad"
       gradientTransform="matrix(-62.774399,9.5e-6,9.5e-6,62.774399,65.5,244)"
       gradientUnits="userSpaceOnUse"
       r="1"
       cy="0"
       cx="0"
       fy="0"
       fx="0"><stop
         id="stop124"
         offset="0"
         style="stop-opacity:1;stop-color:#f8cb3a" /><stop
         id="stop126"
         offset="0.06482938"
         style="stop-opacity:1;stop-color:#f8cb3a" /><stop
         id="stop128"
         offset="0.606383"
         style="stop-opacity:1;stop-color:#ede481" /><stop
         id="stop130"
         offset="0.60683446"
         style="stop-opacity:1;stop-color:#ede481" /><stop
         id="stop132"
         offset="0.647143"
         style="stop-opacity:1;stop-color:#e7ec9a" /><stop
         id="stop134"
         offset="0.9291066"
         style="stop-opacity:1;stop-color:#e7ec9a" /><stop
         id="stop136"
         offset="1"
         style="stop-opacity:1;stop-color:#f7d85b" /><stop
         id="stop138"
         offset="1"
         style="stop-opacity:1;stop-color:#f7d85b" /><stop
         id="stop140"
         offset="1"
         style="stop-opacity:1;stop-color:#f7d85b" /></radialGradient><radialGradient
       id="radialGradient166"
       spreadMethod="pad"
       gradientTransform="matrix(-62.26255,9.4e-6,9.4e-6,62.26255,198.5,244)"
       gradientUnits="userSpaceOnUse"
       r="1"
       cy="0"
       cx="0"
       fy="0"
       fx="0"><stop
         id="stop148"
         offset="0"
         style="stop-opacity:1;stop-color:#f8cb3a" /><stop
         id="stop150"
         offset="0.06482938"
         style="stop-opacity:1;stop-color:#f8cb3a" /><stop
         id="stop152"
         offset="0.606383"
         style="stop-opacity:1;stop-color:#ede481" /><stop
         id="stop154"
         offset="0.60683446"
         style="stop-opacity:1;stop-color:#ede481" /><stop
         id="stop156"
         offset="0.647143"
         style="stop-opacity:1;stop-color:#e7ec9a" /><stop
         id="stop158"
         offset="0.9291066"
         style="stop-opacity:1;stop-color:#e7ec9a" /><stop
         id="stop160"
         offset="1"
         style="stop-opacity:1;stop-color:#f7d85b" /><stop
         id="stop162"
         offset="1"
         style="stop-opacity:1;stop-color:#f7d85b" /><stop
         id="stop164"
         offset="1"
         style="stop-opacity:1;stop-color:#f7d85b" /></radialGradient><radialGradient
       id="radialGradient190"
       spreadMethod="pad"
       gradientTransform="matrix(-62.774399,9.5e-6,9.5e-6,62.774399,332.5,244)"
       gradientUnits="userSpaceOnUse"
       r="1"
       cy="0"
       cx="0"
       fy="0"
       fx="0"><stop
         id="stop172"
         offset="0"
         style="stop-opacity:1;stop-color:#f8cb3a" /><stop
         id="stop174"
         offset="0.06482938"
         style="stop-opacity:1;stop-color:#f8cb3a" /><stop
         id="stop176"
         offset="0.606383"
         style="stop-opacity:1;stop-color:#ede481" /><stop
         id="stop178"
         offset="0.60683446"
         style="stop-opacity:1;stop-color:#ede481" /><stop
         id="stop180"
         offset="0.647143"
         style="stop-opacity:1;stop-color:#e7ec9a" /><stop
         id="stop182"
         offset="0.9291066"
         style="stop-opacity:1;stop-color:#e7ec9a" /><stop
         id="stop184"
         offset="1"
         style="stop-opacity:1;stop-color:#f7d85b" /><stop
         id="stop186"
         offset="1"
         style="stop-opacity:1;stop-color:#f7d85b" /><stop
         id="stop188"
         offset="1"
         style="stop-opacity:1;stop-color:#f7d85b" /></radialGradient><radialGradient
       id="radialGradient214"
       spreadMethod="pad"
       gradientTransform="matrix(-63.031734,9.5e-6,9.5e-6,63.031734,468,244)"
       gradientUnits="userSpaceOnUse"
       r="1"
       cy="0"
       cx="0"
       fy="0"
       fx="0"><stop
         id="stop196"
         offset="0"
         style="stop-opacity:1;stop-color:#f8cb3a" /><stop
         id="stop198"
         offset="0.06482938"
         style="stop-opacity:1;stop-color:#f8cb3a" /><stop
         id="stop200"
         offset="0.606383"
         style="stop-opacity:1;stop-color:#ede481" /><stop
         id="stop202"
         offset="0.60683446"
         style="stop-opacity:1;stop-color:#ede481" /><stop
         id="stop204"
         offset="0.647143"
         style="stop-opacity:1;stop-color:#e7ec9a" /><stop
         id="stop206"
         offset="0.9291066"
         style="stop-opacity:1;stop-color:#e7ec9a" /><stop
         id="stop208"
         offset="1"
         style="stop-opacity:1;stop-color:#f7d85b" /><stop
         id="stop210"
         offset="1"
         style="stop-opacity:1;stop-color:#f7d85b" /><stop
         id="stop212"
         offset="1"
         style="stop-opacity:1;stop-color:#f7d85b" /></radialGradient><radialGradient
       id="radialGradient238"
       spreadMethod="pad"
       gradientTransform="matrix(-62.26255,9.4e-6,9.4e-6,62.26255,601.5,244)"
       gradientUnits="userSpaceOnUse"
       r="1"
       cy="0"
       cx="0"
       fy="0"
       fx="0"><stop
         id="stop220"
         offset="0"
         style="stop-opacity:1;stop-color:#f8cb3a" /><stop
         id="stop222"
         offset="0.06482938"
         style="stop-opacity:1;stop-color:#f8cb3a" /><stop
         id="stop224"
         offset="0.606383"
         style="stop-opacity:1;stop-color:#ede481" /><stop
         id="stop226"
         offset="0.60683446"
         style="stop-opacity:1;stop-color:#ede481" /><stop
         id="stop228"
         offset="0.647143"
         style="stop-opacity:1;stop-color:#e7ec9a" /><stop
         id="stop230"
         offset="0.9291066"
         style="stop-opacity:1;stop-color:#e7ec9a" /><stop
         id="stop232"
         offset="1"
         style="stop-opacity:1;stop-color:#f7d85b" /><stop
         id="stop234"
         offset="1"
         style="stop-opacity:1;stop-color:#f7d85b" /><stop
         id="stop236"
         offset="1"
         style="stop-opacity:1;stop-color:#f7d85b" /></radialGradient><radialGradient
       id="radialGradient262"
       spreadMethod="pad"
       gradientTransform="matrix(-63.031734,9.5e-6,9.5e-6,63.031734,735,244)"
       gradientUnits="userSpaceOnUse"
       r="1"
       cy="0"
       cx="0"
       fy="0"
       fx="0"><stop
         id="stop244"
         offset="0"
         style="stop-opacity:1;stop-color:#f8cb3a" /><stop
         id="stop246"
         offset="0.06482938"
         style="stop-opacity:1;stop-color:#f8cb3a" /><stop
         id="stop248"
         offset="0.606383"
         style="stop-opacity:1;stop-color:#ede481" /><stop
         id="stop250"
         offset="0.60683446"
         style="stop-opacity:1;stop-color:#ede481" /><stop
         id="stop252"
         offset="0.647143"
         style="stop-opacity:1;stop-color:#e7ec9a" /><stop
         id="stop254"
         offset="0.9291066"
         style="stop-opacity:1;stop-color:#e7ec9a" /><stop
         id="stop256"
         offset="1"
         style="stop-opacity:1;stop-color:#f7d85b" /><stop
         id="stop258"
         offset="1"
         style="stop-opacity:1;stop-color:#f7d85b" /><stop
         id="stop260"
         offset="1"
         style="stop-opacity:1;stop-color:#f7d85b" /></radialGradient><clipPath
       id="clipPath346"
       clipPathUnits="userSpaceOnUse"><path
         id="path344"
         d="M 0,800 H 800 V 0 H 0 Z" /></clipPath><clipPath
       id="clipPath354"
       clipPathUnits="userSpaceOnUse"><path
         id="path352"
         d="M 1,178 H 800 V 57 H 1 Z" /></clipPath><radialGradient
       id="radialGradient378"
       spreadMethod="pad"
       gradientTransform="matrix(-62.531994,9.4e-6,9.4e-6,62.531994,65.5,117.5)"
       gradientUnits="userSpaceOnUse"
       r="1"
       cy="0"
       cx="0"
       fy="0"
       fx="0"><stop
         id="stop360"
         offset="0"
         style="stop-opacity:1;stop-color:#f8cb3a" /><stop
         id="stop362"
         offset="0.06482938"
         style="stop-opacity:1;stop-color:#f8cb3a" /><stop
         id="stop364"
         offset="0.606383"
         style="stop-opacity:1;stop-color:#ede481" /><stop
         id="stop366"
         offset="0.60683446"
         style="stop-opacity:1;stop-color:#ede481" /><stop
         id="stop368"
         offset="0.647143"
         style="stop-opacity:1;stop-color:#e7ec9a" /><stop
         id="stop370"
         offset="0.9291066"
         style="stop-opacity:1;stop-color:#e7ec9a" /><stop
         id="stop372"
         offset="1"
         style="stop-opacity:1;stop-color:#f7d85b" /><stop
         id="stop374"
         offset="1"
         style="stop-opacity:1;stop-color:#f7d85b" /><stop
         id="stop376"
         offset="1"
         style="stop-opacity:1;stop-color:#f7d85b" /></radialGradient><radialGradient
       id="radialGradient402"
       spreadMethod="pad"
       gradientTransform="matrix(-62.018143,9.4e-6,9.4e-6,62.018143,198.5,117.5)"
       gradientUnits="userSpaceOnUse"
       r="1"
       cy="0"
       cx="0"
       fy="0"
       fx="0"><stop
         id="stop384"
         offset="0"
         style="stop-opacity:1;stop-color:#f8cb3a" /><stop
         id="stop386"
         offset="0.06482938"
         style="stop-opacity:1;stop-color:#f8cb3a" /><stop
         id="stop388"
         offset="0.606383"
         style="stop-opacity:1;stop-color:#ede481" /><stop
         id="stop390"
         offset="0.60683446"
         style="stop-opacity:1;stop-color:#ede481" /><stop
         id="stop392"
         offset="0.647143"
         style="stop-opacity:1;stop-color:#e7ec9a" /><stop
         id="stop394"
         offset="0.9291066"
         style="stop-opacity:1;stop-color:#e7ec9a" /><stop
         id="stop396"
         offset="1"
         style="stop-opacity:1;stop-color:#f7d85b" /><stop
         id="stop398"
         offset="1"
         style="stop-opacity:1;stop-color:#f7d85b" /><stop
         id="stop400"
         offset="1"
         style="stop-opacity:1;stop-color:#f7d85b" /></radialGradient><radialGradient
       id="radialGradient426"
       spreadMethod="pad"
       gradientTransform="matrix(-62.531994,9.4e-6,9.4e-6,62.531994,332.5,117.5)"
       gradientUnits="userSpaceOnUse"
       r="1"
       cy="0"
       cx="0"
       fy="0"
       fx="0"><stop
         id="stop408"
         offset="0"
         style="stop-opacity:1;stop-color:#f8cb3a" /><stop
         id="stop410"
         offset="0.06482938"
         style="stop-opacity:1;stop-color:#f8cb3a" /><stop
         id="stop412"
         offset="0.606383"
         style="stop-opacity:1;stop-color:#ede481" /><stop
         id="stop414"
         offset="0.60683446"
         style="stop-opacity:1;stop-color:#ede481" /><stop
         id="stop416"
         offset="0.647143"
         style="stop-opacity:1;stop-color:#e7ec9a" /><stop
         id="stop418"
         offset="0.9291066"
         style="stop-opacity:1;stop-color:#e7ec9a" /><stop
         id="stop420"
         offset="1"
         style="stop-opacity:1;stop-color:#f7d85b" /><stop
         id="stop422"
         offset="1"
         style="stop-opacity:1;stop-color:#f7d85b" /><stop
         id="stop424"
         offset="1"
         style="stop-opacity:1;stop-color:#f7d85b" /></radialGradient><radialGradient
       id="radialGradient450"
       spreadMethod="pad"
       gradientTransform="matrix(-62.790321,9.5e-6,9.5e-6,62.790321,468,117.5)"
       gradientUnits="userSpaceOnUse"
       r="1"
       cy="0"
       cx="0"
       fy="0"
       fx="0"><stop
         id="stop432"
         offset="0"
         style="stop-opacity:1;stop-color:#f8cb3a" /><stop
         id="stop434"
         offset="0.06482938"
         style="stop-opacity:1;stop-color:#f8cb3a" /><stop
         id="stop436"
         offset="0.606383"
         style="stop-opacity:1;stop-color:#ede481" /><stop
         id="stop438"
         offset="0.60683446"
         style="stop-opacity:1;stop-color:#ede481" /><stop
         id="stop440"
         offset="0.647143"
         style="stop-opacity:1;stop-color:#e7ec9a" /><stop
         id="stop442"
         offset="0.9291066"
         style="stop-opacity:1;stop-color:#e7ec9a" /><stop
         id="stop444"
         offset="1"
         style="stop-opacity:1;stop-color:#f7d85b" /><stop
         id="stop446"
         offset="1"
         style="stop-opacity:1;stop-color:#f7d85b" /><stop
         id="stop448"
         offset="1"
         style="stop-opacity:1;stop-color:#f7d85b" /></radialGradient><radialGradient
       id="radialGradient474"
       spreadMethod="pad"
       gradientTransform="matrix(-62.018143,9.4e-6,9.4e-6,62.018143,601.5,117.5)"
       gradientUnits="userSpaceOnUse"
       r="1"
       cy="0"
       cx="0"
       fy="0"
       fx="0"><stop
         id="stop456"
         offset="0"
         style="stop-opacity:1;stop-color:#f8cb3a" /><stop
         id="stop458"
         offset="0.06482938"
         style="stop-opacity:1;stop-color:#f8cb3a" /><stop
         id="stop460"
         offset="0.606383"
         style="stop-opacity:1;stop-color:#ede481" /><stop
         id="stop462"
         offset="0.60683446"
         style="stop-opacity:1;stop-color:#ede481" /><stop
         id="stop464"
         offset="0.647143"
         style="stop-opacity:1;stop-color:#e7ec9a" /><stop
         id="stop466"
         offset="0.9291066"
         style="stop-opacity:1;stop-color:#e7ec9a" /><stop
         id="stop468"
         offset="1"
         style="stop-opacity:1;stop-color:#f7d85b" /><stop
         id="stop470"
         offset="1"
         style="stop-opacity:1;stop-color:#f7d85b" /><stop
         id="stop472"
         offset="1"
         style="stop-opacity:1;stop-color:#f7d85b" /></radialGradient><radialGradient
       id="radialGradient498"
       spreadMethod="pad"
       gradientTransform="matrix(-62.790321,9.5e-6,9.5e-6,62.790321,735,117.5)"
       gradientUnits="userSpaceOnUse"
       r="1"
       cy="0"
       cx="0"
       fy="0"
       fx="0"><stop
         id="stop480"
         offset="0"
         style="stop-opacity:1;stop-color:#f8cb3a" /><stop
         id="stop482"
         offset="0.06482938"
         style="stop-opacity:1;stop-color:#f8cb3a" /><stop
         id="stop484"
         offset="0.606383"
         style="stop-opacity:1;stop-color:#ede481" /><stop
         id="stop486"
         offset="0.60683446"
         style="stop-opacity:1;stop-color:#ede481" /><stop
         id="stop488"
         offset="0.647143"
         style="stop-opacity:1;stop-color:#e7ec9a" /><stop
         id="stop490"
         offset="0.9291066"
         style="stop-opacity:1;stop-color:#e7ec9a" /><stop
         id="stop492"
         offset="1"
         style="stop-opacity:1;stop-color:#f7d85b" /><stop
         id="stop494"
         offset="1"
         style="stop-opacity:1;stop-color:#f7d85b" /><stop
         id="stop496"
         offset="1"
         style="stop-opacity:1;stop-color:#f7d85b" /></radialGradient><clipPath
       id="clipPath570"
       clipPathUnits="userSpaceOnUse"><path
         id="path568"
         d="M 0,800 H 800 V 0 H 0 Z" /></clipPath><clipPath
       id="clipPath822"
       clipPathUnits="userSpaceOnUse"><path
         id="path820"
         d="M 0,800 H 800 V 0 H 0 Z" /></clipPath></defs><g
     id="g983"><circle
       r="158.70361"
       cy="160.01886"
       cx="160.01888"
       id="background"
       style="opacity:0.36000001;fill:#00ffff;fill-opacity:1;stroke:#f9f9f9;stroke-width:2.6305511;stroke-miterlimit:4;stroke-dasharray:none;stroke-opacity:1"><title
         id="title1753">background</title></circle><path
       d="m 148.77622,78.742384 c 0,0 1.38848,-8.832599 5.60109,-10.782426 0,0 6.90512,-4.84848 12.73474,2.717347 0,0 2.77757,2.9738 2.29757,7.824146 -0.0248,0.25832 -0.62841,2.370213 -0.38439,2.305013 2.49691,-0.672493 0.847,2.94648 0.24032,3.6016 -1.20094,1.295947 -1.20094,1.295947 -2.01254,1.027694 0,0 -2.96324,3.937533 -3.58296,5.971813 -0.68307,2.24416 0.4564,2.991186 0.4564,2.991186 0,0 2.92598,-0.17884 5.01864,1.26552 2.09326,1.443747 10.75633,-1.084826 14.90686,1.44188 4.1499,2.52608 22.2392,1.2736 23.86366,1.2736 1.62444,0 12.77012,-7.952066 12.77012,-7.952066 0,0 8.42276,-5.02112 9.86525,-6.553653 1.14072,-1.211507 20.09068,-10.09688 18.65873,-6.688414 0,0 -6.56172,3.33024 -7.28266,3.510934 -0.21051,0.0528 1.26801,0.455786 1.19286,1.43132 -0.0497,0.647666 -1.63561,0.914066 -0.98732,1.333213 2.41803,1.564213 -0.012,2.028693 0.5098,2.450947 2.31807,1.874066 -1.18417,2.891213 -1.18417,2.891213 0,0 -2.36525,0.722173 -3.26752,0.722173 -0.90349,0 -2.7074,0.36016 -2.7074,0.36016 0,0 -0.72156,0.3614 -1.80452,0.722187 -1.08233,0.360773 -2.52671,0.722173 -2.52671,0.722173 0,0 -0.18132,0 -1.08296,0.902267 -0.90225,0.902253 -4.83109,5.28564 -6.13512,6.546826 -1.51205,1.462983 -8.08496,5.766893 -8.08496,5.766893 0,0 -2.45901,1.45864 -3.94249,2.53477 -0.43903,0.31855 -0.40797,1.24503 -5.11364,0.57315 -1.19971,-0.17139 -6.25808,0.25832 -6.25808,0.25832 0,0 -8.58483,3.82017 -19.37097,-0.82216 0,0 -3.06756,-0.40735 -3.24888,1.57167 -0.18071,1.97777 -1.08235,4.14306 -1.62383,6.66977 -0.54085,2.52671 1.08235,7.21871 1.08235,7.21871 0,0 -5.77435,21.29472 -5.95443,22.73846 -0.18071,1.44375 5.05216,5.77559 5.23348,7.03802 0.18008,1.26365 0.54148,10.82837 0.54148,10.82837 0,0 -1.62507,7.57887 -0.3614,8.84252 0,0 0.90164,0.54148 -0.90225,1.98523 -1.80515,1.44374 -1.62446,2.1653 -1.62446,2.1653 0,0 0.18008,11.18915 -0.54148,14.97889 -0.72093,3.78975 -1.9846,20.57316 -6.13512,21.47543 0,0 -3.24826,0.72156 -5.41481,-2.52671 0,0 -2.346,-1.80452 -2.16529,-3.06756 l 0.18069,-1.26429 c 0,0 -2.16592,-4.14989 -1.44436,-6.13512 l -0.36016,-5.59427 c 0,0 -1.26428,-0.90226 -1.62444,-1.62382 -0.36079,-0.72218 -0.72219,-2.16592 -0.72219,-2.16592 0,0 -2.34661,9.38401 -1.89456,11.18853 0.45144,1.80515 0,6.13637 0,6.13637 0,0 0.99231,3.20355 0,5.12108 -0.99353,1.91692 -1.17361,4.62432 -1.17361,4.62432 0,0 1.80452,4.8721 1.17361,7.5795 -0.63213,2.70616 -2.25596,13.89532 -2.25596,13.89532 0,0 -0.54148,15.15897 0,16.24193 0.54211,1.08296 3.60904,4.14991 3.24888,5.59427 -0.36201,1.44373 0.72095,2.34662 1.26304,3.60966 0.54087,1.2618 -0.3614,3.78974 -0.3614,3.78974 0,0 1.98523,2.52484 1.08235,2.88686 -0.90164,0.3614 -7.57825,2.52608 -8.48113,3.24764 -0.90164,0.7228 -3.61028,-0.54024 -3.97044,-1.62381 -0.3614,-1.08296 0.36016,-2.70679 0,-3.42772 -0.3614,-0.72219 -0.59427,-2.16717 -0.59427,-2.16717 l -0.57873,-2.70554 v -2.70741 c 0,0 1.26304,-1.08233 0.45081,-2.16592 -0.8116,-1.08296 0.22604,-2.52545 0.22604,-2.52545 l 0.74453,-1.08359 c 0,0 -3.91332,-27.97195 -3.73324,-30.49803 0.18008,-2.5267 0.38872,-9.38525 1.29099,-9.38525 0.90227,0 0.91716,-7.75895 0.73647,-9.38339 -0.18132,-1.62382 -0.96934,-2.46398 -1.68468,-4.26913 -0.71722,-1.80391 -5.36638,-15.42661 -4.26044,-26.4096 0.44648,-4.4312 -0.16766,3.15822 -3.78912,-1.20157 -1.19722,-1.44125 -3.01851,-0.22355 -3.01851,-0.22355 0,0 -6.26056,1.22951 -1.23013,-5.58929 1.6288,-2.20753 2.00696,-7.06036 1.99392,-7.69251 -0.0229,-1.06185 1.17176,-0.81346 1.17176,-0.81346 0,0 4.19709,-10.10556 5.28005,-10.10556 1.08235,0 2.14357,-1.80515 2.14357,-1.80515 l -0.64208,-1.98523 c 0,0 -1.82625,-2.5267 -3.08866,-3.78974 -1.26367,-1.26366 -1.28416,-13.17375 -1.28416,-13.17375 v -10.82837 c 0,0 0.91716,-5.59364 0.91716,-6.31646 0,-0.72156 -3.73696,-7.75956 -4.8193,-8.48112 -1.08296,-0.72218 -14.29335,-1.05005 -23.29733,-9.497649 0,0 -1.26242,-0.471307 -3.89158,-1.523227 -0.54707,-0.2192 -1.86166,-2.546573 -2.47019,-2.91108 -6.243801,-3.733853 -14.167921,-12.95952 -16.809507,-21.364879 0,0 -1.489694,-2.601227 -2.030547,-2.601227 -0.542107,0 -5.170147,-2.105693 -6.28664,-2.773227 -2.80056,-1.674733 -5.21176,-4.611279 -3.700946,-5.649533 0.4682,-0.32228 -0.534654,-1.49528 -0.03413,-2.514893 0.212987,-0.43468 0.488707,-0.432813 0.7582,-0.826507 0.344014,-0.505466 0.0304,-1.777826 0.268254,-2.218706 0.431573,-0.796694 1.562973,-0.55204 1.583466,-0.31732 l -4.279693,-5.240307 c 0,0 0.516027,-2.093893 3.757453,1.185413 1.334453,1.34936 4.741067,3.86488 7.421147,7.10756 3.616493,4.374067 6.474786,9.500747 6.474786,9.500747 0,0 6.1134,5.06148 10.6868,9.68208 5.597987,5.655733 9.904367,11.115879 10.427847,11.584079 1.42946,1.274227 5.09376,0.969334 18.58793,6.662947 1.11588,0.470693 4.45915,-1.643694 14.9789,3.421506 0,0 2.84277,-1.555506 5.59426,-2.710506 1.6971,-0.712867 0.54148,-3.430827 0.54148,-3.430827 0,0 -0.56693,-3.9872 -1.08233,-4.151146 -0.27012,-0.08627 -1.08359,-1.264894 -1.08359,-1.264894 0,0 -0.81408,-4.048066 -0.18132,-4.511933 0.58308,-0.425973 1.62568,0.180707 1.62568,0.180707 z"
       style="fill:#000080;fill-opacity:1;fill-rule:nonzero;stroke:#000080;stroke-width:0.70000005;stroke-miterlimit:4;stroke-dasharray:none;stroke-opacity:1"
       id="runner"
       inkscape:connector-curvature="0"><title
         id="title1749">runner</title></path><path
       id="shadow"
       d="m 171.42646,296.87699 c -7.94897,-7.66036 -16.40117,-15.85696 -18.78267,-18.21465 l -4.33,-4.28675 4.62532,-1.76882 c 3.20244,-1.22468 4.5513,-2.02611 4.38471,-2.60519 -0.1324,-0.46 -0.44051,-2.16528 -0.68483,-3.78952 -0.71692,-4.76607 -1.4508,-6.98269 -3.17386,-9.58643 -1.62063,-2.44893 -1.62136,-2.4549 -1.36396,-11.19776 0.14162,-4.81112 0.75264,-11.85956 1.35776,-15.66317 0.8876,-5.57905 0.9768,-7.51828 0.46154,-10.03357 -0.4925,-2.40424 -0.45874,-3.72794 0.14748,-5.78296 0.5116,-1.73426 0.69823,-4.62476 0.53438,-8.27607 -0.22163,-4.93877 0.45018,-11.79657 1.28856,-13.15307 0.1601,-0.25909 0.80153,0.17776 1.42532,0.97079 0.83354,1.05968 1.13418,2.38548 1.13418,5.00172 0,1.95792 0.29615,4.30807 0.65807,5.22255 0.36193,0.91449 0.69417,2.2489 0.73829,2.96538 0.0441,0.71648 1.09934,2.37764 2.34491,3.69147 2.78368,2.9362 5.66741,3.31189 7.22104,0.94076 2.44195,-3.72688 4.97771,-18.49449 4.98208,-29.01433 0.003,-6.01836 0.10907,-6.64157 1.33164,-7.79036 1.28167,-1.20427 1.32893,-1.62281 1.32893,-11.76797 v -10.51928 l -2.76356,-3.36763 -2.76354,-3.36761 2.32973,-8.74038 c 1.28136,-4.8072 2.61991,-9.85785 2.97456,-11.22365 0.44407,-1.71016 0.46409,-3.5322 0.0644,-5.85247 -0.32141,-1.86542 -0.36653,-4.18409 -0.1012,-5.19496 0.26361,-1.00417 0.77236,-2.95536 1.13053,-4.33596 0.56519,-2.17865 0.86272,-2.50934 2.25268,-2.5038 0.88082,0.004 2.9062,0.4022 4.50086,0.88595 3.36461,1.02069 10.9474,1.1598 13.93758,0.25571 1.13483,-0.34311 4.3225,-0.63486 7.08371,-0.64828 l 5.02039,-0.0243 6.39933,-4.19056 c 3.95289,-2.58852 7.81205,-5.716399 10.09464,-8.181813 3.69667,-3.992733 6.80801,-5.74528 10.37985,-5.846706 0.81212,-0.02293 2.40683,-0.359174 3.5438,-0.746894 1.85376,-0.63216 2.07372,-0.935453 2.13023,-2.937293 0.0347,-1.227786 -0.19307,-2.390586 -0.50604,-2.584026 -0.33399,-0.2064 -0.25369,-0.54656 0.19433,-0.823467 0.5605,-0.346413 0.59184,-0.67996 0.118,-1.255093 -0.50746,-0.615907 0.0413,-1.084894 2.56899,-2.1944 l 3.2144,-1.411094 4.55659,4.379894 c 26.75618,25.718612 62.36617,64.251302 62.64937,64.989302 10.51406,78.03823 -47.73744,147.81849 -124.05753,167.10027 -0.51415,0 -12.63196,-9.86303 -20.58094,-17.52338 z"
       style="opacity:0.36000001;fill:#008080;fill-opacity:1;stroke:#f9f9f9;stroke-width:0;stroke-miterlimit:4;stroke-dasharray:none;stroke-opacity:1"
       inkscape:connector-curvature="0"><title
         id="title1751">shadow</title></path></g></svg>