<?xml version="1.0" encoding="UTF-8" standalone="no"?>
<!-- Created with Inkscape (http://www.inkscape.org/) -->

<svg
   xmlns:dc="http://purl.org/dc/elements/1.1/"
   xmlns:cc="http://creativecommons.org/ns#"
   xmlns:rdf="http://www.w3.org/1999/02/22-rdf-syntax-ns#"
   xmlns:svg="http://www.w3.org/2000/svg"
   xmlns="http://www.w3.org/2000/svg"
   xmlns:sodipodi="http://sodipodi.sourceforge.net/DTD/sodipodi-0.dtd"
   xmlns:inkscape="http://www.inkscape.org/namespaces/inkscape"
   version="1.1"
   id="svg2"
   xml:space="preserve"
   width="115.25784"
   height="115.25784"
   viewBox="0 0 115.25783 115.25782"
   sodipodi:docname="runner1.svg"
   inkscape:version="0.92.2 (5c3e80d, 2017-08-06)"><metadata
     id="metadata8"><rdf:RDF><cc:Work
         rdf:about=""><dc:format>image/svg+xml</dc:format><dc:type
           rdf:resource="http://purl.org/dc/dcmitype/StillImage" /><dc:title></dc:title></cc:Work></rdf:RDF></metadata><defs
     id="defs6"><clipPath
       clipPathUnits="userSpaceOnUse"
       id="clipPath18"><path
         d="M 0.321,0 H 800 V 799.999 H 0.321 Z"
         id="path16"
         inkscape:connector-curvature="0" /></clipPath><clipPath
       clipPathUnits="userSpaceOnUse"
       id="clipPath26"><path
         d="M -80.1392,875.959 H 887.342 V -89.7617 H -80.1392 Z"
         id="path24"
         inkscape:connector-curvature="0" /></clipPath><clipPath
       clipPathUnits="userSpaceOnUse"
       id="clipPath30"><path
         d="M -80.1392,875.959 H 887.342 V -89.7617 H -80.1392 Z"
         id="path28"
         inkscape:connector-curvature="0" /></clipPath><radialGradient
       fx="0"
       fy="0"
       cx="0"
       cy="0"
       r="1"
       gradientUnits="userSpaceOnUse"
       gradientTransform="matrix(0,-649.75983,650.94403,0,403.5,393)"
       spreadMethod="pad"
       id="radialGradient48"><stop
         style="stop-opacity:1;stop-color:#231f20"
         offset="0"
         id="stop36" /><stop
         style="stop-opacity:1;stop-color:#231f20"
         offset="0.574443"
         id="stop38" /><stop
         style="stop-opacity:1;stop-color:#231f20"
         offset="0.61136583"
         id="stop40" /><stop
         style="stop-opacity:1;stop-color:#b2b4b6"
         offset="0.797713"
         id="stop42" /><stop
         style="stop-opacity:1;stop-color:#f1f2f2"
         offset="0.9096649"
         id="stop44" /><stop
         style="stop-opacity:1;stop-color:#f1f2f2"
         offset="1"
         id="stop46" /></radialGradient><mask
       maskUnits="userSpaceOnUse"
       x="0"
       y="0"
       width="1"
       height="1"
       id="mask50"><g
         id="g74"><g
           clip-path="url(#clipPath26)"
           id="g72"
           style="opacity:0.30000299"><path
             d="M -80.139,875.959 H 887.342 V -89.762 H -80.139 Z"
             style="fill:#000000;fill-opacity:1;fill-rule:nonzero;stroke:none"
             id="path52"
             inkscape:connector-curvature="0" /><g
             id="g70"><g
               id="g54" /><g
               id="g68"><g
                 clip-path="url(#clipPath30)"
                 id="g66"><g
                   id="g64"><g
                     id="g62"><g
                       id="g60"><g
                         id="g58"><path
                           d="M 887.342,-89.762 H -80.139 v 965.721 h 967.481 z"
                           style="fill:url(#radialGradient48);stroke:none"
                           id="path56"
                           inkscape:connector-curvature="0" /></g></g></g></g></g></g></g></g></g></mask><clipPath
       clipPathUnits="userSpaceOnUse"
       id="clipPath82"><path
         d="M -80.1392,875.959 H 887.342 V -89.7617 H -80.1392 Z"
         id="path80"
         inkscape:connector-curvature="0" /></clipPath><clipPath
       clipPathUnits="userSpaceOnUse"
       id="clipPath110"><path
         d="M 0,800 H 800 V 0 H 0 Z"
         id="path108"
         inkscape:connector-curvature="0" /></clipPath><clipPath
       clipPathUnits="userSpaceOnUse"
       id="clipPath118"><path
         d="M 1,305 H 800 V 183 H 1 Z"
         id="path116"
         inkscape:connector-curvature="0" /></clipPath><radialGradient
       fx="0"
       fy="0"
       cx="0"
       cy="0"
       r="1"
       gradientUnits="userSpaceOnUse"
       gradientTransform="matrix(-62.774399,9.5e-6,9.5e-6,62.774399,65.5,244)"
       spreadMethod="pad"
       id="radialGradient142"><stop
         style="stop-opacity:1;stop-color:#f8cb3a"
         offset="0"
         id="stop124" /><stop
         style="stop-opacity:1;stop-color:#f8cb3a"
         offset="0.06482938"
         id="stop126" /><stop
         style="stop-opacity:1;stop-color:#ede481"
         offset="0.606383"
         id="stop128" /><stop
         style="stop-opacity:1;stop-color:#ede481"
         offset="0.60683446"
         id="stop130" /><stop
         style="stop-opacity:1;stop-color:#e7ec9a"
         offset="0.647143"
         id="stop132" /><stop
         style="stop-opacity:1;stop-color:#e7ec9a"
         offset="0.9291066"
         id="stop134" /><stop
         style="stop-opacity:1;stop-color:#f7d85b"
         offset="1"
         id="stop136" /><stop
         style="stop-opacity:1;stop-color:#f7d85b"
         offset="1"
         id="stop138" /><stop
         style="stop-opacity:1;stop-color:#f7d85b"
         offset="1"
         id="stop140" /></radialGradient><radialGradient
       fx="0"
       fy="0"
       cx="0"
       cy="0"
       r="1"
       gradientUnits="userSpaceOnUse"
       gradientTransform="matrix(-62.26255,9.4e-6,9.4e-6,62.26255,198.5,244)"
       spreadMethod="pad"
       id="radialGradient166"><stop
         style="stop-opacity:1;stop-color:#f8cb3a"
         offset="0"
         id="stop148" /><stop
         style="stop-opacity:1;stop-color:#f8cb3a"
         offset="0.06482938"
         id="stop150" /><stop
         style="stop-opacity:1;stop-color:#ede481"
         offset="0.606383"
         id="stop152" /><stop
         style="stop-opacity:1;stop-color:#ede481"
         offset="0.60683446"
         id="stop154" /><stop
         style="stop-opacity:1;stop-color:#e7ec9a"
         offset="0.647143"
         id="stop156" /><stop
         style="stop-opacity:1;stop-color:#e7ec9a"
         offset="0.9291066"
         id="stop158" /><stop
         style="stop-opacity:1;stop-color:#f7d85b"
         offset="1"
         id="stop160" /><stop
         style="stop-opacity:1;stop-color:#f7d85b"
         offset="1"
         id="stop162" /><stop
         style="stop-opacity:1;stop-color:#f7d85b"
         offset="1"
         id="stop164" /></radialGradient><radialGradient
       fx="0"
       fy="0"
       cx="0"
       cy="0"
       r="1"
       gradientUnits="userSpaceOnUse"
       gradientTransform="matrix(-62.774399,9.5e-6,9.5e-6,62.774399,332.5,244)"
       spreadMethod="pad"
       id="radialGradient190"><stop
         style="stop-opacity:1;stop-color:#f8cb3a"
         offset="0"
         id="stop172" /><stop
         style="stop-opacity:1;stop-color:#f8cb3a"
         offset="0.06482938"
         id="stop174" /><stop
         style="stop-opacity:1;stop-color:#ede481"
         offset="0.606383"
         id="stop176" /><stop
         style="stop-opacity:1;stop-color:#ede481"
         offset="0.60683446"
         id="stop178" /><stop
         style="stop-opacity:1;stop-color:#e7ec9a"
         offset="0.647143"
         id="stop180" /><stop
         style="stop-opacity:1;stop-color:#e7ec9a"
         offset="0.9291066"
         id="stop182" /><stop
         style="stop-opacity:1;stop-color:#f7d85b"
         offset="1"
         id="stop184" /><stop
         style="stop-opacity:1;stop-color:#f7d85b"
         offset="1"
         id="stop186" /><stop
         style="stop-opacity:1;stop-color:#f7d85b"
         offset="1"
         id="stop188" /></radialGradient><radialGradient
       fx="0"
       fy="0"
       cx="0"
       cy="0"
       r="1"
       gradientUnits="userSpaceOnUse"
       gradientTransform="matrix(-63.031734,9.5e-6,9.5e-6,63.031734,468,244)"
       spreadMethod="pad"
       id="radialGradient214"><stop
         style="stop-opacity:1;stop-color:#f8cb3a"
         offset="0"
         id="stop196" /><stop
         style="stop-opacity:1;stop-color:#f8cb3a"
         offset="0.06482938"
         id="stop198" /><stop
         style="stop-opacity:1;stop-color:#ede481"
         offset="0.606383"
         id="stop200" /><stop
         style="stop-opacity:1;stop-color:#ede481"
         offset="0.60683446"
         id="stop202" /><stop
         style="stop-opacity:1;stop-color:#e7ec9a"
         offset="0.647143"
         id="stop204" /><stop
         style="stop-opacity:1;stop-color:#e7ec9a"
         offset="0.9291066"
         id="stop206" /><stop
         style="stop-opacity:1;stop-color:#f7d85b"
         offset="1"
         id="stop208" /><stop
         style="stop-opacity:1;stop-color:#f7d85b"
         offset="1"
         id="stop210" /><stop
         style="stop-opacity:1;stop-color:#f7d85b"
         offset="1"
         id="stop212" /></radialGradient><radialGradient
       fx="0"
       fy="0"
       cx="0"
       cy="0"
       r="1"
       gradientUnits="userSpaceOnUse"
       gradientTransform="matrix(-62.26255,9.4e-6,9.4e-6,62.26255,601.5,244)"
       spreadMethod="pad"
       id="radialGradient238"><stop
         style="stop-opacity:1;stop-color:#f8cb3a"
         offset="0"
         id="stop220" /><stop
         style="stop-opacity:1;stop-color:#f8cb3a"
         offset="0.06482938"
         id="stop222" /><stop
         style="stop-opacity:1;stop-color:#ede481"
         offset="0.606383"
         id="stop224" /><stop
         style="stop-opacity:1;stop-color:#ede481"
         offset="0.60683446"
         id="stop226" /><stop
         style="stop-opacity:1;stop-color:#e7ec9a"
         offset="0.647143"
         id="stop228" /><stop
         style="stop-opacity:1;stop-color:#e7ec9a"
         offset="0.9291066"
         id="stop230" /><stop
         style="stop-opacity:1;stop-color:#f7d85b"
         offset="1"
         id="stop232" /><stop
         style="stop-opacity:1;stop-color:#f7d85b"
         offset="1"
         id="stop234" /><stop
         style="stop-opacity:1;stop-color:#f7d85b"
         offset="1"
         id="stop236" /></radialGradient><radialGradient
       fx="0"
       fy="0"
       cx="0"
       cy="0"
       r="1"
       gradientUnits="userSpaceOnUse"
       gradientTransform="matrix(-63.031734,9.5e-6,9.5e-6,63.031734,735,244)"
       spreadMethod="pad"
       id="radialGradient262"><stop
         style="stop-opacity:1;stop-color:#f8cb3a"
         offset="0"
         id="stop244" /><stop
         style="stop-opacity:1;stop-color:#f8cb3a"
         offset="0.06482938"
         id="stop246" /><stop
         style="stop-opacity:1;stop-color:#ede481"
         offset="0.606383"
         id="stop248" /><stop
         style="stop-opacity:1;stop-color:#ede481"
         offset="0.60683446"
         id="stop250" /><stop
         style="stop-opacity:1;stop-color:#e7ec9a"
         offset="0.647143"
         id="stop252" /><stop
         style="stop-opacity:1;stop-color:#e7ec9a"
         offset="0.9291066"
         id="stop254" /><stop
         style="stop-opacity:1;stop-color:#f7d85b"
         offset="1"
         id="stop256" /><stop
         style="stop-opacity:1;stop-color:#f7d85b"
         offset="1"
         id="stop258" /><stop
         style="stop-opacity:1;stop-color:#f7d85b"
         offset="1"
         id="stop260" /></radialGradient><clipPath
       clipPathUnits="userSpaceOnUse"
       id="clipPath346"><path
         d="M 0,800 H 800 V 0 H 0 Z"
         id="path344"
         inkscape:connector-curvature="0" /></clipPath><clipPath
       clipPathUnits="userSpaceOnUse"
       id="clipPath354"><path
         d="M 1,178 H 800 V 57 H 1 Z"
         id="path352"
         inkscape:connector-curvature="0" /></clipPath><radialGradient
       fx="0"
       fy="0"
       cx="0"
       cy="0"
       r="1"
       gradientUnits="userSpaceOnUse"
       gradientTransform="matrix(-62.531994,9.4e-6,9.4e-6,62.531994,65.5,117.5)"
       spreadMethod="pad"
       id="radialGradient378"><stop
         style="stop-opacity:1;stop-color:#f8cb3a"
         offset="0"
         id="stop360" /><stop
         style="stop-opacity:1;stop-color:#f8cb3a"
         offset="0.06482938"
         id="stop362" /><stop
         style="stop-opacity:1;stop-color:#ede481"
         offset="0.606383"
         id="stop364" /><stop
         style="stop-opacity:1;stop-color:#ede481"
         offset="0.60683446"
         id="stop366" /><stop
         style="stop-opacity:1;stop-color:#e7ec9a"
         offset="0.647143"
         id="stop368" /><stop
         style="stop-opacity:1;stop-color:#e7ec9a"
         offset="0.9291066"
         id="stop370" /><stop
         style="stop-opacity:1;stop-color:#f7d85b"
         offset="1"
         id="stop372" /><stop
         style="stop-opacity:1;stop-color:#f7d85b"
         offset="1"
         id="stop374" /><stop
         style="stop-opacity:1;stop-color:#f7d85b"
         offset="1"
         id="stop376" /></radialGradient><radialGradient
       fx="0"
       fy="0"
       cx="0"
       cy="0"
       r="1"
       gradientUnits="userSpaceOnUse"
       gradientTransform="matrix(-62.018143,9.4e-6,9.4e-6,62.018143,198.5,117.5)"
       spreadMethod="pad"
       id="radialGradient402"><stop
         style="stop-opacity:1;stop-color:#f8cb3a"
         offset="0"
         id="stop384" /><stop
         style="stop-opacity:1;stop-color:#f8cb3a"
         offset="0.06482938"
         id="stop386" /><stop
         style="stop-opacity:1;stop-color:#ede481"
         offset="0.606383"
         id="stop388" /><stop
         style="stop-opacity:1;stop-color:#ede481"
         offset="0.60683446"
         id="stop390" /><stop
         style="stop-opacity:1;stop-color:#e7ec9a"
         offset="0.647143"
         id="stop392" /><stop
         style="stop-opacity:1;stop-color:#e7ec9a"
         offset="0.9291066"
         id="stop394" /><stop
         style="stop-opacity:1;stop-color:#f7d85b"
         offset="1"
         id="stop396" /><stop
         style="stop-opacity:1;stop-color:#f7d85b"
         offset="1"
         id="stop398" /><stop
         style="stop-opacity:1;stop-color:#f7d85b"
         offset="1"
         id="stop400" /></radialGradient><radialGradient
       fx="0"
       fy="0"
       cx="0"
       cy="0"
       r="1"
       gradientUnits="userSpaceOnUse"
       gradientTransform="matrix(-62.531994,9.4e-6,9.4e-6,62.531994,332.5,117.5)"
       spreadMethod="pad"
       id="radialGradient426"><stop
         style="stop-opacity:1;stop-color:#f8cb3a"
         offset="0"
         id="stop408" /><stop
         style="stop-opacity:1;stop-color:#f8cb3a"
         offset="0.06482938"
         id="stop410" /><stop
         style="stop-opacity:1;stop-color:#ede481"
         offset="0.606383"
         id="stop412" /><stop
         style="stop-opacity:1;stop-color:#ede481"
         offset="0.60683446"
         id="stop414" /><stop
         style="stop-opacity:1;stop-color:#e7ec9a"
         offset="0.647143"
         id="stop416" /><stop
         style="stop-opacity:1;stop-color:#e7ec9a"
         offset="0.9291066"
         id="stop418" /><stop
         style="stop-opacity:1;stop-color:#f7d85b"
         offset="1"
         id="stop420" /><stop
         style="stop-opacity:1;stop-color:#f7d85b"
         offset="1"
         id="stop422" /><stop
         style="stop-opacity:1;stop-color:#f7d85b"
         offset="1"
         id="stop424" /></radialGradient><radialGradient
       fx="0"
       fy="0"
       cx="0"
       cy="0"
       r="1"
       gradientUnits="userSpaceOnUse"
       gradientTransform="matrix(-62.790321,9.5e-6,9.5e-6,62.790321,468,117.5)"
       spreadMethod="pad"
       id="radialGradient450"><stop
         style="stop-opacity:1;stop-color:#f8cb3a"
         offset="0"
         id="stop432" /><stop
         style="stop-opacity:1;stop-color:#f8cb3a"
         offset="0.06482938"
         id="stop434" /><stop
         style="stop-opacity:1;stop-color:#ede481"
         offset="0.606383"
         id="stop436" /><stop
         style="stop-opacity:1;stop-color:#ede481"
         offset="0.60683446"
         id="stop438" /><stop
         style="stop-opacity:1;stop-color:#e7ec9a"
         offset="0.647143"
         id="stop440" /><stop
         style="stop-opacity:1;stop-color:#e7ec9a"
         offset="0.9291066"
         id="stop442" /><stop
         style="stop-opacity:1;stop-color:#f7d85b"
         offset="1"
         id="stop444" /><stop
         style="stop-opacity:1;stop-color:#f7d85b"
         offset="1"
         id="stop446" /><stop
         style="stop-opacity:1;stop-color:#f7d85b"
         offset="1"
         id="stop448" /></radialGradient><radialGradient
       fx="0"
       fy="0"
       cx="0"
       cy="0"
       r="1"
       gradientUnits="userSpaceOnUse"
       gradientTransform="matrix(-62.018143,9.4e-6,9.4e-6,62.018143,601.5,117.5)"
       spreadMethod="pad"
       id="radialGradient474"><stop
         style="stop-opacity:1;stop-color:#f8cb3a"
         offset="0"
         id="stop456" /><stop
         style="stop-opacity:1;stop-color:#f8cb3a"
         offset="0.06482938"
         id="stop458" /><stop
         style="stop-opacity:1;stop-color:#ede481"
         offset="0.606383"
         id="stop460" /><stop
         style="stop-opacity:1;stop-color:#ede481"
         offset="0.60683446"
         id="stop462" /><stop
         style="stop-opacity:1;stop-color:#e7ec9a"
         offset="0.647143"
         id="stop464" /><stop
         style="stop-opacity:1;stop-color:#e7ec9a"
         offset="0.9291066"
         id="stop466" /><stop
         style="stop-opacity:1;stop-color:#f7d85b"
         offset="1"
         id="stop468" /><stop
         style="stop-opacity:1;stop-color:#f7d85b"
         offset="1"
         id="stop470" /><stop
         style="stop-opacity:1;stop-color:#f7d85b"
         offset="1"
         id="stop472" /></radialGradient><radialGradient
       fx="0"
       fy="0"
       cx="0"
       cy="0"
       r="1"
       gradientUnits="userSpaceOnUse"
       gradientTransform="matrix(-62.790321,9.5e-6,9.5e-6,62.790321,735,117.5)"
       spreadMethod="pad"
       id="radialGradient498"><stop
         style="stop-opacity:1;stop-color:#f8cb3a"
         offset="0"
         id="stop480" /><stop
         style="stop-opacity:1;stop-color:#f8cb3a"
         offset="0.06482938"
         id="stop482" /><stop
         style="stop-opacity:1;stop-color:#ede481"
         offset="0.606383"
         id="stop484" /><stop
         style="stop-opacity:1;stop-color:#ede481"
         offset="0.60683446"
         id="stop486" /><stop
         style="stop-opacity:1;stop-color:#e7ec9a"
         offset="0.647143"
         id="stop488" /><stop
         style="stop-opacity:1;stop-color:#e7ec9a"
         offset="0.9291066"
         id="stop490" /><stop
         style="stop-opacity:1;stop-color:#f7d85b"
         offset="1"
         id="stop492" /><stop
         style="stop-opacity:1;stop-color:#f7d85b"
         offset="1"
         id="stop494" /><stop
         style="stop-opacity:1;stop-color:#f7d85b"
         offset="1"
         id="stop496" /></radialGradient><clipPath
       clipPathUnits="userSpaceOnUse"
       id="clipPath570"><path
         d="M 0,800 H 800 V 0 H 0 Z"
         id="path568"
         inkscape:connector-curvature="0" /></clipPath><clipPath
       clipPathUnits="userSpaceOnUse"
       id="clipPath822"><path
         d="M 0,800 H 800 V 0 H 0 Z"
         id="path820"
         inkscape:connector-curvature="0" /></clipPath></defs><sodipodi:namedview
     pagecolor="#ffffff"
     bordercolor="#666666"
     borderopacity="1"
     objecttolerance="10"
     gridtolerance="10"
     guidetolerance="10"
     inkscape:pageopacity="0"
     inkscape:pageshadow="2"
     inkscape:window-width="1366"
     inkscape:window-height="705"
     id="namedview4"
     showgrid="false"
     fit-margin-top="0"
     fit-margin-left="0"
     fit-margin-right="0"
     fit-margin-bottom="0"
     inkscape:zoom="3.5399997"
     inkscape:cx="35.420498"
     inkscape:cy="74.049991"
     inkscape:window-x="-8"
     inkscape:window-y="-8"
     inkscape:window-maximized="1"
     inkscape:current-layer="g10" /><g
     id="g10"
     inkscape:groupmode="layer"
     inkscape:label="Silhouettes_06_"
     transform="matrix(1.3333333,0,0,-1.3333333,-346.12901,920.72149)"><g
       id="g1875"
       transform="matrix(1.4838099,0,0,1.4838099,-126.07275,-333.61339)"
       style="stroke-width:0.67394078"><circle
         transform="scale(1,-1)"
         r="28.464046"
         cy="-661.09064"
         cx="289.04727"
         id="path1728"
         style="opacity:0.36000001;fill:#00ffff;fill-opacity:1;stroke:#f9f9f9;stroke-width:1.3296268;stroke-miterlimit:4;stroke-dasharray:none;stroke-opacity:1" /><g
         style="fill:#000080;stroke-width:6.05125427"
         transform="matrix(0.11137208,0,0,0.11137208,287.03086,675.66786)"
         id="g840"><path
           inkscape:connector-curvature="0"
           id="path842"
           style="fill:#000080;fill-opacity:1;fill-rule:nonzero;stroke:none;stroke-width:6.05125427"
           d="m 0,0 c 0,0 2.236,14.224 9.02,17.364 0,0 11.12,7.808 20.508,-4.376 0,0 4.473,-4.789 3.7,-12.6 -0.04,-0.416 -1.012,-3.817 -0.619,-3.712 4.021,1.083 1.364,-4.745 0.387,-5.8 -1.934,-2.087 -1.934,-2.087 -3.241,-1.655 0,0 -4.772,-6.341 -5.77,-9.617 -1.1,-3.614 0.735,-4.817 0.735,-4.817 0,0 4.712,0.288 8.082,-2.038 3.371,-2.325 17.322,1.747 24.006,-2.322 6.683,-4.068 35.814,-2.051 38.43,-2.051 2.616,0 20.565,12.806 20.565,12.806 0,0 13.564,8.086 15.887,10.554 1.837,1.951 32.354,16.26 30.048,10.771 0,0 -10.567,-5.363 -11.728,-5.654 -0.339,-0.085 2.042,-0.734 1.921,-2.305 -0.08,-1.043 -2.634,-1.472 -1.59,-2.147 3.894,-2.519 -0.02,-3.267 0.821,-3.947 3.733,-3.018 -1.907,-4.656 -1.907,-4.656 0,0 -3.809,-1.163 -5.262,-1.163 -1.455,0 -4.36,-0.58 -4.36,-0.58 0,0 -1.162,-0.582 -2.906,-1.163 -1.743,-0.581 -4.069,-1.163 -4.069,-1.163 0,0 -0.292,0 -1.744,-1.453 -1.453,-1.453 -7.78,-8.512 -9.88,-10.543 -2.435,-2.356 -13.02,-9.287 -13.02,-9.287 0,0 -3.96,-2.349 -6.349,-4.082 -0.707,-0.513 -0.657,-2.005 -8.235,-0.923 -1.932,0.276 -10.078,-0.416 -10.078,-0.416 0,0 -13.825,-6.152 -31.195,1.324 0,0 -4.94,0.656 -5.232,-2.531 -0.291,-3.185 -1.743,-6.672 -2.615,-10.741 -0.871,-4.069 1.743,-11.625 1.743,-11.625 0,0 -9.299,-34.293 -9.589,-36.618 -0.291,-2.325 8.136,-9.301 8.428,-11.334 0.29,-2.035 0.872,-17.438 0.872,-17.438 0,0 -2.617,-12.205 -0.582,-14.24 0,0 1.452,-0.872 -1.453,-3.197 -2.907,-2.325 -2.616,-3.487 -2.616,-3.487 0,0 0.29,-18.019 -0.872,-24.122 -1.161,-6.103 -3.196,-33.131 -9.88,-34.584 0,0 -5.231,-1.162 -8.72,4.069 0,0 -3.778,2.906 -3.487,4.94 l 0.291,2.036 c 0,0 -3.488,6.683 -2.326,9.88 l -0.58,9.009 c 0,0 -2.036,1.453 -2.616,2.615 -0.581,1.163 -1.163,3.488 -1.163,3.488 0,0 -3.779,-15.112 -3.051,-18.018 0.727,-2.907 0,-9.882 0,-9.882 0,0 1.598,-5.159 0,-8.247 -1.6,-3.087 -1.89,-7.447 -1.89,-7.447 0,0 2.906,-7.846 1.89,-12.206 -1.018,-4.358 -3.633,-22.377 -3.633,-22.377 0,0 -0.872,-24.412 0,-26.156 0.873,-1.744 5.812,-6.683 5.232,-9.009 -0.583,-2.325 1.161,-3.779 2.034,-5.813 0.871,-2.032 -0.582,-6.103 -0.582,-6.103 0,0 3.197,-4.066 1.743,-4.649 -1.452,-0.582 -12.204,-4.068 -13.658,-5.23 -1.452,-1.164 -5.814,0.87 -6.394,2.615 -0.582,1.744 0.58,4.359 0,5.52 -0.582,1.163 -0.957,3.49 -0.957,3.49 l -0.932,4.357 v 4.36 c 0,0 2.034,1.743 0.726,3.488 -1.307,1.744 0.364,4.067 0.364,4.067 l 1.199,1.745 c 0,0 -6.302,45.046 -6.012,49.114 0.29,4.069 0.626,15.114 2.079,15.114 1.453,0 1.477,12.495 1.186,15.111 -0.292,2.615 -1.561,3.968 -2.713,6.875 -1.155,2.905 -8.642,24.843 -6.861,42.53 0.719,7.136 -0.27,-5.086 -6.102,1.935 -1.928,2.321 -4.861,0.36 -4.861,0.36 0,0 -10.082,-1.98 -1.981,9.001 2.623,3.555 3.232,11.37 3.211,12.388 -0.037,1.71 1.887,1.31 1.887,1.31 0,0 6.759,16.274 8.503,16.274 1.743,0 3.452,2.907 3.452,2.907 l -1.034,3.197 c 0,0 -2.941,4.069 -4.974,6.103 -2.035,2.035 -2.068,21.215 -2.068,21.215 v 17.438 c 0,0 1.477,9.008 1.477,10.172 0,1.162 -6.018,12.496 -7.761,13.658 -1.744,1.163 -23.018,1.691 -37.518,15.295 0,0 -2.033,0.759 -6.267,2.453 -0.881,0.353 -2.998,4.101 -3.978,4.688 -10.055,6.013 -22.816,20.87 -27.07,34.406 0,0 -2.399,4.189 -3.27,4.189 -0.873,0 -8.326,3.391 -10.124,4.466 -4.51,2.697 -8.393,7.426 -5.96,9.098 0.754,0.519 -0.861,2.408 -0.055,4.05 0.343,0.7 0.787,0.697 1.221,1.331 0.554,0.814 0.049,2.863 0.432,3.573 0.695,1.283 2.517,0.889 2.55,0.511 l -6.892,8.439 c 0,0 0.831,3.372 6.051,-1.909 2.149,-2.173 7.635,-6.224 11.951,-11.446 5.824,-7.044 10.427,-15.3 10.427,-15.3 0,0 9.845,-8.151 17.21,-15.592 9.015,-9.108 15.95,-17.901 16.793,-18.655 2.302,-2.052 8.203,-1.561 29.934,-10.73 1.797,-0.758 7.181,2.647 24.122,-5.51 0,0 4.578,2.505 9.009,4.365 2.733,1.148 0.872,5.525 0.872,5.525 0,0 -0.913,6.421 -1.743,6.685 -0.435,0.139 -1.745,2.037 -1.745,2.037 0,0 -1.311,6.519 -0.292,7.266 0.939,0.686 2.618,-0.291 2.618,-0.291 z" /></g><path
         transform="matrix(0.75000002,0,0,-0.75000002,259.59677,690.54114)"
         inkscape:connector-curvature="0"
         id="path1869"
         d="M 41.995321,71.995309 C 40.09442,70.163427 38.073178,68.20331 37.503671,67.639494 l -1.035467,-1.025123 1.106089,-0.422993 c 0.765825,-0.292869 1.088388,-0.48452 1.048549,-0.622999 -0.03165,-0.110003 -0.105342,-0.517802 -0.163768,-0.90622 -0.171442,-1.139748 -0.34694,-1.669827 -0.75899,-2.292477 -0.387555,-0.585635 -0.387729,-0.587062 -0.326176,-2.677809 0.03387,-1.150524 0.179984,-2.836071 0.324693,-3.74566 0.212257,-1.334165 0.233589,-1.797906 0.110372,-2.39941 -0.117776,-0.574945 -0.109704,-0.891489 0.03527,-1.382925 0.122341,-0.414725 0.166972,-1.105956 0.127787,-1.979122 -0.053,-1.181048 0.107659,-2.821007 0.308143,-3.145397 0.03829,-0.06196 0.191677,0.04251 0.340851,0.232151 0.199332,0.253411 0.271225,0.570459 0.271225,1.196103 0,0.468212 0.07082,1.030222 0.15737,1.248909 0.08655,0.218688 0.166003,0.537798 0.176554,0.709135 0.01055,0.171338 0.262891,0.568584 0.560756,0.882769 0.665683,0.702157 1.355294,0.792 1.726825,0.224973 0.583961,-0.891239 1.190358,-4.422735 1.191404,-6.93843 5.93e-4,-1.439218 0.02607,-1.58825 0.318447,-1.862969 0.306494,-0.287987 0.317797,-0.388078 0.317797,-2.81417 v -2.515561 l -0.660871,-0.805325 -0.66087,-0.805324 0.557129,-2.090156 c 0.306421,-1.149586 0.626519,-2.357387 0.711329,-2.684002 0.106192,-0.408966 0.110983,-0.844685 0.01539,-1.399548 -0.07686,-0.446093 -0.08765,-1.000574 -0.02419,-1.242312 0.06304,-0.240135 0.184701,-0.706737 0.270352,-1.036893 0.13516,-0.520999 0.20631,-0.60008 0.538702,-0.598753 0.210636,8.47e-4 0.694983,0.09618 1.076326,0.211864 0.804607,0.244086 2.617938,0.277353 3.333005,0.06115 0.27138,-0.08205 1.033672,-0.151818 1.693983,-0.155031 l 1.200565,-0.0058 1.530326,-1.002121 c 0.945287,-0.619013 1.868157,-1.367009 2.414012,-1.956582 0.884011,-0.954813 1.628052,-1.373914 2.482216,-1.39817 0.194209,-0.0055 0.575565,-0.08589 0.847458,-0.178609 0.443304,-0.151175 0.495905,-0.223705 0.509417,-0.702419 0.0083,-0.29361 -0.04617,-0.571682 -0.121012,-0.617938 -0.07987,-0.04936 -0.06067,-0.130705 0.04647,-0.196924 0.134036,-0.08284 0.141533,-0.162604 0.02821,-0.300141 -0.121356,-0.147285 0.0099,-0.259437 0.614342,-0.524765 l 0.768684,-0.337446 1.089655,1.0474 c 6.398419,6.150299 13.863239,13.454237 13.930962,13.630721 0.04669,0.121674 0.160302,1.289694 0.25247,2.595599 0.446609,6.327889 -0.947164,13.180698 -3.830023,18.831189 -1.776816,3.482618 -3.69596,6.157909 -6.436428,8.972398 -4.196733,4.310091 -8.71769,7.208659 -14.268004,9.147799 -1.369247,0.47838 -5.123081,1.463915 -5.57595,1.463915 -0.122953,0 -1.778833,-1.498812 -3.679733,-3.330692 z"
         style="opacity:0.36000001;fill:#008080;fill-opacity:1;stroke:#f9f9f9;stroke-width:0;stroke-miterlimit:4;stroke-dasharray:none;stroke-opacity:1" /></g></g></svg>