<?xml version="1.0" encoding="UTF-8" standalone="no"?>
<svg
   xmlns:dc="http://purl.org/dc/elements/1.1/"
   xmlns:cc="http://creativecommons.org/ns#"
   xmlns:rdf="http://www.w3.org/1999/02/22-rdf-syntax-ns#"
   xmlns:svg="http://www.w3.org/2000/svg"
   xmlns="http://www.w3.org/2000/svg"
   xmlns:sodipodi="http://sodipodi.sourceforge.net/DTD/sodipodi-0.dtd"
   xmlns:inkscape="http://www.inkscape.org/namespaces/inkscape"
   viewBox="0 0 90.000001 89.999997"
   height="90"
   width="90"
   xml:space="preserve"
   version="1.1"
   id="svg2"
   sodipodi:docname="first_race.svg"
   inkscape:version="0.92.2 (5c3e80d, 2017-08-06)"><sodipodi:namedview
     pagecolor="#ffffff"
     bordercolor="#666666"
     borderopacity="1"
     objecttolerance="10"
     gridtolerance="10"
     guidetolerance="10"
     inkscape:pageopacity="0"
     inkscape:pageshadow="2"
     inkscape:window-width="1366"
     inkscape:window-height="705"
     id="namedview288"
     showgrid="false"
     inkscape:zoom="3.7706268"
     inkscape:cx="-15.394419"
     inkscape:cy="64.335136"
     inkscape:window-x="-8"
     inkscape:window-y="-8"
     inkscape:window-maximized="1"
     inkscape:current-layer="svg2"
     fit-margin-top="0"
     fit-margin-left="0"
     fit-margin-right="0"
     fit-margin-bottom="0" /><metadata
     id="metadata8"><rdf:RDF><cc:Work
         rdf:about=""><dc:format>image/svg+xml</dc:format><dc:type
           rdf:resource="http://purl.org/dc/dcmitype/StillImage" /><dc:title /></cc:Work></rdf:RDF></metadata><defs
     id="defs6" /><ellipse
     style="opacity:0.36000001;fill:#008080;fill-opacity:1;stroke:#f9f9f9;stroke-width:0;stroke-miterlimit:4;stroke-dasharray:none;stroke-opacity:1"
     id="path4583"
     cx="45.007271"
     cy="44.992729"
     rx="41.256664"
     ry="38.25618" /><path
     id="path586"
     style="fill:#8ac53f;fill-opacity:1;fill-rule:nonzero;stroke:none;stroke-width:0.4771637"
     d="M 46.565257,43.907521 26.768387,69.145729 23.110909,66.277717 C 22.146447,65.521112 21.978129,64.123309 22.734208,63.15911 L 37.409539,44.452803 c 0.919043,-1.173121 4.130358,-1.017093 6.7459,-2.434935 l 2.409818,1.889653"
     inkscape:connector-curvature="0" /><path
     id="path588"
     style="fill:#8ac53f;fill-opacity:1;fill-rule:nonzero;stroke:none;stroke-width:0.4771637"
     d="m 46.565257,43.907521 -19.79687,25.238208 3.654807,2.868007 c 0.967133,0.757411 2.361734,0.58803 3.120477,-0.377233 l 14.67266,-18.706312 c 0.92172,-1.172315 0.0054,-4.252989 0.758749,-7.133017 l -2.409823,-1.889653"
     inkscape:connector-curvature="0" /><path
     id="path590"
     style="fill:#60a344;fill-opacity:1;fill-rule:nonzero;stroke:none;stroke-width:0.4771637"
     d="m 47.409498,46.367568 -3.435735,-2.694617 c -0.307234,0.13091 -5.345954,1.541804 -5.458163,1.658823 L 23.848281,64.03167 c -0.27518,0.349983 -0.213731,0.858132 0.136252,1.132511 l 7.312285,5.736014 c 0.349988,0.274379 0.8576,0.21293 1.13278,-0.137053 l 14.67266,-18.706307 c 0.08015,-0.123967 0.256479,-5.371608 0.30724,-5.689267"
     inkscape:connector-curvature="0" /><path
     id="path592"
     style="fill:#8ac53f;fill-opacity:1;fill-rule:nonzero;stroke:none;stroke-width:0.4771637"
     d="m 38.056078,50.680135 c -0.240449,0.30724 -0.686612,0.360402 -0.991181,0.11969 -0.30724,-0.240713 -0.363342,-0.684473 -0.120222,-0.991713 0.240444,-0.30724 0.683941,-0.361209 0.991176,-0.120227 0.30724,0.240718 0.360671,0.68501 0.120227,0.99225"
     inkscape:connector-curvature="0" /><path
     id="path594"
     style="fill:#8ac53f;fill-opacity:1;fill-rule:nonzero;stroke:none;stroke-width:0.4771637"
     d="m 45.363022,50.426864 c -0.333959,0.42773 -0.95378,0.502533 -1.381241,0.167242 -0.427462,-0.335823 -0.50227,-0.954574 -0.168312,-1.382305 0.336623,-0.427462 0.956444,-0.502539 1.383906,-0.167248 0.427467,0.336097 0.499599,0.95458 0.165647,1.382311"
     inkscape:connector-curvature="0" /><path
     id="path596"
     style="fill:#f3e107;fill-opacity:1;fill-rule:nonzero;stroke:none;stroke-width:0.4771637"
     d="m 54.612249,37.68366 -3.919304,-3.074789 c -4.81697,6.156264 -4.947881,6.602163 -6.537506,7.408997 l 4.816971,3.778506 c 0.488911,-1.860264 0.895001,-2.065182 5.639839,-8.112714"
     inkscape:connector-curvature="0" /><path
     id="path598"
     style="fill:#faef71;fill-opacity:1;fill-rule:nonzero;stroke:none;stroke-width:0.4771637"
     d="m 38.243091,65.647213 -10.809464,-8.479258 5.719984,-7.290382 10.806798,8.478726 -5.717318,7.290914"
     inkscape:connector-curvature="0" /><path
     id="path600"
     style="fill:#faae17;fill-opacity:1;fill-rule:nonzero;stroke:none;stroke-width:0.4771637"
     d="m 38.424761,62.67474 2.693016,-3.43279 c -0.539671,-0.42506 -0.617145,-1.231361 -0.170982,-1.800954 l -6.187524,-4.854377 c -0.448838,0.569861 -1.25033,0.687412 -1.790002,0.262358 l -2.693015,3.433058 c 0.539671,0.424791 0.61715,1.231093 0.170982,1.800686 l 6.187529,4.854377 c 0.448833,-0.569592 1.250325,-0.686612 1.789996,-0.262358"
     inkscape:connector-curvature="0" /><path
     id="path602"
     style="fill:#60a344;fill-opacity:1;fill-rule:nonzero;stroke:none;stroke-width:0.4771637"
     d="m 55.362981,37.914491 c -0.154958,0.195299 -0.48624,0.191021 -0.74272,-0.01042 l -4.143717,-3.248986 c -0.25648,-0.202241 -0.3393,-0.523372 -0.187013,-0.719472 l 0.609133,-0.775311 c 0.152282,-0.196094 0.48624,-0.190484 0.742714,0.01096 l 4.141047,3.248986 c 0.256479,0.201441 0.34197,0.522835 0.187018,0.718671 l -0.606462,0.775575"
     inkscape:connector-curvature="0" /><path
     id="path604"
     style="fill:#537837;fill-opacity:1;fill-rule:nonzero;stroke:none;stroke-width:0.4771637"
     d="m 55.672891,36.334216 -3.921975,-3.077466 1.370553,-1.750462 3.924646,3.078267 -1.373224,1.749661"
     inkscape:connector-curvature="0" /><path
     id="path606"
     style="fill:#f3e107;fill-opacity:1;fill-rule:nonzero;stroke:none;stroke-width:0.4771637"
     d="m 55.159933,30.920666 -3.155208,-4.230816 3.523897,-1.033655 -0.368689,5.264471"
     inkscape:connector-curvature="0" /><path
     id="path608"
     style="fill:#f3e107;fill-opacity:1;fill-rule:nonzero;stroke:none;stroke-width:0.4771637"
     d="m 57.131606,32.467279 4.859719,2.057165 0.165641,-3.668967 -5.02536,1.611802"
     inkscape:connector-curvature="0" /><path
     id="path610"
     style="fill:#f3e107;fill-opacity:1;fill-rule:nonzero;stroke:none;stroke-width:0.4771637"
     d="M 56.567887,31.169665 61.061593,28.40398 58.1682,26.141097 56.567887,31.169665"
     inkscape:connector-curvature="0" /><g
     id="korek"
     inkscape:label="#g863"><title
       id="title865">korek</title><path
       inkscape:connector-curvature="0"
       d="m 66.276636,18.482564 -4.010131,5.111926 -1.159493,-0.90943 1.330475,-1.693554 c -0.499593,-0.701841 -0.50227,-1.671381 0.05611,-2.382304 l 0.272504,-0.347849 c 0.68127,-0.866413 1.931601,-1.017625 2.797213,-0.337962 l 0.713324,0.559173"
       style="fill:#f3e107;fill-opacity:1;fill-rule:nonzero;stroke:none;stroke-width:0.4771637"
       id="path612" /><path
       inkscape:connector-curvature="0"
       d="m 67.329266,21.83975 -0.272509,0.34785 c -0.558372,0.711191 -1.501463,0.937749 -2.302955,0.622228 l -1.327805,1.693017 -1.159492,-0.908355 4.010131,-5.111926 0.71333,0.55971 c 0.865612,0.678868 1.0179,1.931064 0.3393,2.797476"
       style="fill:#faae17;fill-opacity:1;fill-rule:nonzero;stroke:none;stroke-width:0.4771637"
       id="path614" /></g><path
     id="path616"
     style="fill:#ffffff;fill-opacity:1;fill-rule:nonzero;stroke:none;stroke-width:0.4771637"
     d="m 41.371586,47.039488 c 0,0.686611 -0.555702,1.243651 -1.242314,1.243651 -0.686611,0 -1.244983,-0.55704 -1.244983,-1.243651 0,-0.686612 0.558372,-1.243114 1.244983,-1.243114 0.686612,0 1.242314,0.556502 1.242314,1.243114"
     inkscape:connector-curvature="0" /></svg>