<?xml version="1.0" encoding="UTF-8" standalone="no"?>
<svg
   xmlns:dc="http://purl.org/dc/elements/1.1/"
   xmlns:cc="http://creativecommons.org/ns#"
   xmlns:rdf="http://www.w3.org/1999/02/22-rdf-syntax-ns#"
   xmlns:svg="http://www.w3.org/2000/svg"
   xmlns="http://www.w3.org/2000/svg"
   xmlns:sodipodi="http://sodipodi.sourceforge.net/DTD/sodipodi-0.dtd"
   xmlns:inkscape="http://www.inkscape.org/namespaces/inkscape"
   viewBox="0 0 50 50"
   height="50"
   width="50"
   xml:space="preserve"
   version="1.1"
   id="svg2"
   sodipodi:docname="email1.svg"
   inkscape:version="0.92.2 (5c3e80d, 2017-08-06)"><sodipodi:namedview
     pagecolor="#ffffff"
     bordercolor="#666666"
     borderopacity="1"
     objecttolerance="10"
     gridtolerance="10"
     guidetolerance="10"
     inkscape:pageopacity="0"
     inkscape:pageshadow="2"
     inkscape:window-width="1366"
     inkscape:window-height="705"
     id="namedview127"
     showgrid="false"
     fit-margin-top="0"
     fit-margin-left="0"
     fit-margin-right="0"
     fit-margin-bottom="0"
     inkscape:zoom="5.3400704"
     inkscape:cx="44.943286"
     inkscape:cy="42.590712"
     inkscape:window-x="-8"
     inkscape:window-y="-8"
     inkscape:window-maximized="1"
     inkscape:current-layer="svg2" /><metadata
     id="metadata8"><rdf:RDF><cc:Work
         rdf:about=""><dc:format>image/svg+xml</dc:format><dc:type
           rdf:resource="http://purl.org/dc/dcmitype/StillImage" /><dc:title></dc:title></cc:Work></rdf:RDF></metadata><defs
     id="defs6" /><path
     id="path54"
     style="fill:#0000ff;fill-opacity:1;fill-rule:nonzero;stroke:none;stroke-width:0.12499999"
     d="m 14.456728,35.850063 c -0.187948,0 -0.359135,-0.05467 -0.530722,-0.106944 l 8.065381,-9.217008 3.021126,2.588567 c 0.173184,0.151235 0.389463,0.225457 0.604945,0.225457 0.215081,0 0.430962,-0.07422 0.604544,-0.225457 l 3.020726,-2.588567 8.065381,9.217008 c -0.170789,0.05228 -0.341976,0.106944 -0.530323,0.106944 z M 12.66983,34.353665 C 12.64468,34.231559 12.59641,34.119029 12.59641,33.99014 V 19.109169 c 0,-0.191938 0.05547,-0.366318 0.110135,-0.541098 l 7.871847,6.746956 z m 24.107956,-17.10402 c 0.123303,0 0.231843,0.04709 0.348362,0.07063 l -11.50869,9.865049 -11.50949,-9.865049 c 0.116519,-0.02356 0.225058,-0.07063 0.34876,-0.07063 z m -6.123256,8.066579 7.874639,-6.748153 c 0.05467,0.17478 0.108539,0.34916 0.108539,0.541098 V 33.99014 c 0,0.128889 -0.04908,0.243414 -0.07462,0.36512 z m 6.123256,-9.9269 H 14.456728 c -2.054653,0 -3.720243,1.66559 -3.720243,3.719845 V 33.99014 c 0,2.054653 1.66559,3.720243 3.720243,3.720243 h 22.321058 c 2.054254,0 3.720243,-1.66559 3.720243,-3.720243 V 19.109169 c 0,-2.054255 -1.665989,-3.719845 -3.720243,-3.719845"
     inkscape:connector-curvature="0" /></svg>