<?xml version="1.0" encoding="UTF-8" standalone="no"?>
<!-- Created with Inkscape (http://www.inkscape.org/) -->

<svg
   xmlns:dc="http://purl.org/dc/elements/1.1/"
   xmlns:cc="http://creativecommons.org/ns#"
   xmlns:rdf="http://www.w3.org/1999/02/22-rdf-syntax-ns#"
   xmlns:svg="http://www.w3.org/2000/svg"
   xmlns="http://www.w3.org/2000/svg"
   xmlns:sodipodi="http://sodipodi.sourceforge.net/DTD/sodipodi-0.dtd"
   xmlns:inkscape="http://www.inkscape.org/namespaces/inkscape"
   version="1.1"
   id="svg2"
   xml:space="preserve"
   width="29.366329"
   height="29.366329"
   viewBox="0 0 29.366326 29.366323"
   sodipodi:docname="small_runner.svg"
   inkscape:version="0.92.2 (5c3e80d, 2017-08-06)"><metadata
     id="metadata8"><rdf:RDF><cc:Work
         rdf:about=""><dc:format>image/svg+xml</dc:format><dc:type
           rdf:resource="http://purl.org/dc/dcmitype/StillImage" /><dc:title></dc:title></cc:Work></rdf:RDF></metadata><defs
     id="defs6"><clipPath
       clipPathUnits="userSpaceOnUse"
       id="clipPath18"><path
         d="M 0.321,0 H 800 V 799.999 H 0.321 Z"
         id="path16"
         inkscape:connector-curvature="0" /></clipPath><clipPath
       clipPathUnits="userSpaceOnUse"
       id="clipPath26"><path
         d="M -80.1392,875.959 H 887.342 V -89.7617 H -80.1392 Z"
         id="path24"
         inkscape:connector-curvature="0" /></clipPath><clipPath
       clipPathUnits="userSpaceOnUse"
       id="clipPath30"><path
         d="M -80.1392,875.959 H 887.342 V -89.7617 H -80.1392 Z"
         id="path28"
         inkscape:connector-curvature="0" /></clipPath><radialGradient
       fx="0"
       fy="0"
       cx="0"
       cy="0"
       r="1"
       gradientUnits="userSpaceOnUse"
       gradientTransform="matrix(0,-649.75983,650.94403,0,403.5,393)"
       spreadMethod="pad"
       id="radialGradient48"><stop
         style="stop-opacity:1;stop-color:#231f20"
         offset="0"
         id="stop36" /><stop
         style="stop-opacity:1;stop-color:#231f20"
         offset="0.574443"
         id="stop38" /><stop
         style="stop-opacity:1;stop-color:#231f20"
         offset="0.61136583"
         id="stop40" /><stop
         style="stop-opacity:1;stop-color:#b2b4b6"
         offset="0.797713"
         id="stop42" /><stop
         style="stop-opacity:1;stop-color:#f1f2f2"
         offset="0.9096649"
         id="stop44" /><stop
         style="stop-opacity:1;stop-color:#f1f2f2"
         offset="1"
         id="stop46" /></radialGradient><mask
       maskUnits="userSpaceOnUse"
       x="0"
       y="0"
       width="1"
       height="1"
       id="mask50"><g
         id="g74"><g
           clip-path="url(#clipPath26)"
           id="g72"
           style="opacity:0.30000299"><path
             d="M -80.139,875.959 H 887.342 V -89.762 H -80.139 Z"
             style="fill:#000000;fill-opacity:1;fill-rule:nonzero;stroke:none"
             id="path52"
             inkscape:connector-curvature="0" /><g
             id="g70"><g
               id="g54" /><g
               id="g68"><g
                 clip-path="url(#clipPath30)"
                 id="g66"><g
                   id="g64"><g
                     id="g62"><g
                       id="g60"><g
                         id="g58"><path
                           d="M 887.342,-89.762 H -80.139 v 965.721 h 967.481 z"
                           style="fill:url(#radialGradient48);stroke:none"
                           id="path56"
                           inkscape:connector-curvature="0" /></g></g></g></g></g></g></g></g></g></mask><clipPath
       clipPathUnits="userSpaceOnUse"
       id="clipPath82"><path
         d="M -80.1392,875.959 H 887.342 V -89.7617 H -80.1392 Z"
         id="path80"
         inkscape:connector-curvature="0" /></clipPath><clipPath
       clipPathUnits="userSpaceOnUse"
       id="clipPath110"><path
         d="M 0,800 H 800 V 0 H 0 Z"
         id="path108"
         inkscape:connector-curvature="0" /></clipPath><clipPath
       clipPathUnits="userSpaceOnUse"
       id="clipPath118"><path
         d="M 1,305 H 800 V 183 H 1 Z"
         id="path116"
         inkscape:connector-curvature="0" /></clipPath><radialGradient
       fx="0"
       fy="0"
       cx="0"
       cy="0"
       r="1"
       gradientUnits="userSpaceOnUse"
       gradientTransform="matrix(-62.774399,9.5e-6,9.5e-6,62.774399,65.5,244)"
       spreadMethod="pad"
       id="radialGradient142"><stop
         style="stop-opacity:1;stop-color:#f8cb3a"
         offset="0"
         id="stop124" /><stop
         style="stop-opacity:1;stop-color:#f8cb3a"
         offset="0.06482938"
         id="stop126" /><stop
         style="stop-opacity:1;stop-color:#ede481"
         offset="0.606383"
         id="stop128" /><stop
         style="stop-opacity:1;stop-color:#ede481"
         offset="0.60683446"
         id="stop130" /><stop
         style="stop-opacity:1;stop-color:#e7ec9a"
         offset="0.647143"
         id="stop132" /><stop
         style="stop-opacity:1;stop-color:#e7ec9a"
         offset="0.9291066"
         id="stop134" /><stop
         style="stop-opacity:1;stop-color:#f7d85b"
         offset="1"
         id="stop136" /><stop
         style="stop-opacity:1;stop-color:#f7d85b"
         offset="1"
         id="stop138" /><stop
         style="stop-opacity:1;stop-color:#f7d85b"
         offset="1"
         id="stop140" /></radialGradient><radialGradient
       fx="0"
       fy="0"
       cx="0"
       cy="0"
       r="1"
       gradientUnits="userSpaceOnUse"
       gradientTransform="matrix(-62.26255,9.4e-6,9.4e-6,62.26255,198.5,244)"
       spreadMethod="pad"
       id="radialGradient166"><stop
         style="stop-opacity:1;stop-color:#f8cb3a"
         offset="0"
         id="stop148" /><stop
         style="stop-opacity:1;stop-color:#f8cb3a"
         offset="0.06482938"
         id="stop150" /><stop
         style="stop-opacity:1;stop-color:#ede481"
         offset="0.606383"
         id="stop152" /><stop
         style="stop-opacity:1;stop-color:#ede481"
         offset="0.60683446"
         id="stop154" /><stop
         style="stop-opacity:1;stop-color:#e7ec9a"
         offset="0.647143"
         id="stop156" /><stop
         style="stop-opacity:1;stop-color:#e7ec9a"
         offset="0.9291066"
         id="stop158" /><stop
         style="stop-opacity:1;stop-color:#f7d85b"
         offset="1"
         id="stop160" /><stop
         style="stop-opacity:1;stop-color:#f7d85b"
         offset="1"
         id="stop162" /><stop
         style="stop-opacity:1;stop-color:#f7d85b"
         offset="1"
         id="stop164" /></radialGradient><radialGradient
       fx="0"
       fy="0"
       cx="0"
       cy="0"
       r="1"
       gradientUnits="userSpaceOnUse"
       gradientTransform="matrix(-62.774399,9.5e-6,9.5e-6,62.774399,332.5,244)"
       spreadMethod="pad"
       id="radialGradient190"><stop
         style="stop-opacity:1;stop-color:#f8cb3a"
         offset="0"
         id="stop172" /><stop
         style="stop-opacity:1;stop-color:#f8cb3a"
         offset="0.06482938"
         id="stop174" /><stop
         style="stop-opacity:1;stop-color:#ede481"
         offset="0.606383"
         id="stop176" /><stop
         style="stop-opacity:1;stop-color:#ede481"
         offset="0.60683446"
         id="stop178" /><stop
         style="stop-opacity:1;stop-color:#e7ec9a"
         offset="0.647143"
         id="stop180" /><stop
         style="stop-opacity:1;stop-color:#e7ec9a"
         offset="0.9291066"
         id="stop182" /><stop
         style="stop-opacity:1;stop-color:#f7d85b"
         offset="1"
         id="stop184" /><stop
         style="stop-opacity:1;stop-color:#f7d85b"
         offset="1"
         id="stop186" /><stop
         style="stop-opacity:1;stop-color:#f7d85b"
         offset="1"
         id="stop188" /></radialGradient><radialGradient
       fx="0"
       fy="0"
       cx="0"
       cy="0"
       r="1"
       gradientUnits="userSpaceOnUse"
       gradientTransform="matrix(-63.031734,9.5e-6,9.5e-6,63.031734,468,244)"
       spreadMethod="pad"
       id="radialGradient214"><stop
         style="stop-opacity:1;stop-color:#f8cb3a"
         offset="0"
         id="stop196" /><stop
         style="stop-opacity:1;stop-color:#f8cb3a"
         offset="0.06482938"
         id="stop198" /><stop
         style="stop-opacity:1;stop-color:#ede481"
         offset="0.606383"
         id="stop200" /><stop
         style="stop-opacity:1;stop-color:#ede481"
         offset="0.60683446"
         id="stop202" /><stop
         style="stop-opacity:1;stop-color:#e7ec9a"
         offset="0.647143"
         id="stop204" /><stop
         style="stop-opacity:1;stop-color:#e7ec9a"
         offset="0.9291066"
         id="stop206" /><stop
         style="stop-opacity:1;stop-color:#f7d85b"
         offset="1"
         id="stop208" /><stop
         style="stop-opacity:1;stop-color:#f7d85b"
         offset="1"
         id="stop210" /><stop
         style="stop-opacity:1;stop-color:#f7d85b"
         offset="1"
         id="stop212" /></radialGradient><radialGradient
       fx="0"
       fy="0"
       cx="0"
       cy="0"
       r="1"
       gradientUnits="userSpaceOnUse"
       gradientTransform="matrix(-62.26255,9.4e-6,9.4e-6,62.26255,601.5,244)"
       spreadMethod="pad"
       id="radialGradient238"><stop
         style="stop-opacity:1;stop-color:#f8cb3a"
         offset="0"
         id="stop220" /><stop
         style="stop-opacity:1;stop-color:#f8cb3a"
         offset="0.06482938"
         id="stop222" /><stop
         style="stop-opacity:1;stop-color:#ede481"
         offset="0.606383"
         id="stop224" /><stop
         style="stop-opacity:1;stop-color:#ede481"
         offset="0.60683446"
         id="stop226" /><stop
         style="stop-opacity:1;stop-color:#e7ec9a"
         offset="0.647143"
         id="stop228" /><stop
         style="stop-opacity:1;stop-color:#e7ec9a"
         offset="0.9291066"
         id="stop230" /><stop
         style="stop-opacity:1;stop-color:#f7d85b"
         offset="1"
         id="stop232" /><stop
         style="stop-opacity:1;stop-color:#f7d85b"
         offset="1"
         id="stop234" /><stop
         style="stop-opacity:1;stop-color:#f7d85b"
         offset="1"
         id="stop236" /></radialGradient><radialGradient
       fx="0"
       fy="0"
       cx="0"
       cy="0"
       r="1"
       gradientUnits="userSpaceOnUse"
       gradientTransform="matrix(-63.031734,9.5e-6,9.5e-6,63.031734,735,244)"
       spreadMethod="pad"
       id="radialGradient262"><stop
         style="stop-opacity:1;stop-color:#f8cb3a"
         offset="0"
         id="stop244" /><stop
         style="stop-opacity:1;stop-color:#f8cb3a"
         offset="0.06482938"
         id="stop246" /><stop
         style="stop-opacity:1;stop-color:#ede481"
         offset="0.606383"
         id="stop248" /><stop
         style="stop-opacity:1;stop-color:#ede481"
         offset="0.60683446"
         id="stop250" /><stop
         style="stop-opacity:1;stop-color:#e7ec9a"
         offset="0.647143"
         id="stop252" /><stop
         style="stop-opacity:1;stop-color:#e7ec9a"
         offset="0.9291066"
         id="stop254" /><stop
         style="stop-opacity:1;stop-color:#f7d85b"
         offset="1"
         id="stop256" /><stop
         style="stop-opacity:1;stop-color:#f7d85b"
         offset="1"
         id="stop258" /><stop
         style="stop-opacity:1;stop-color:#f7d85b"
         offset="1"
         id="stop260" /></radialGradient><clipPath
       clipPathUnits="userSpaceOnUse"
       id="clipPath346"><path
         d="M 0,800 H 800 V 0 H 0 Z"
         id="path344"
         inkscape:connector-curvature="0" /></clipPath><clipPath
       clipPathUnits="userSpaceOnUse"
       id="clipPath354"><path
         d="M 1,178 H 800 V 57 H 1 Z"
         id="path352"
         inkscape:connector-curvature="0" /></clipPath><radialGradient
       fx="0"
       fy="0"
       cx="0"
       cy="0"
       r="1"
       gradientUnits="userSpaceOnUse"
       gradientTransform="matrix(-62.531994,9.4e-6,9.4e-6,62.531994,65.5,117.5)"
       spreadMethod="pad"
       id="radialGradient378"><stop
         style="stop-opacity:1;stop-color:#f8cb3a"
         offset="0"
         id="stop360" /><stop
         style="stop-opacity:1;stop-color:#f8cb3a"
         offset="0.06482938"
         id="stop362" /><stop
         style="stop-opacity:1;stop-color:#ede481"
         offset="0.606383"
         id="stop364" /><stop
         style="stop-opacity:1;stop-color:#ede481"
         offset="0.60683446"
         id="stop366" /><stop
         style="stop-opacity:1;stop-color:#e7ec9a"
         offset="0.647143"
         id="stop368" /><stop
         style="stop-opacity:1;stop-color:#e7ec9a"
         offset="0.9291066"
         id="stop370" /><stop
         style="stop-opacity:1;stop-color:#f7d85b"
         offset="1"
         id="stop372" /><stop
         style="stop-opacity:1;stop-color:#f7d85b"
         offset="1"
         id="stop374" /><stop
         style="stop-opacity:1;stop-color:#f7d85b"
         offset="1"
         id="stop376" /></radialGradient><radialGradient
       fx="0"
       fy="0"
       cx="0"
       cy="0"
       r="1"
       gradientUnits="userSpaceOnUse"
       gradientTransform="matrix(-62.018143,9.4e-6,9.4e-6,62.018143,198.5,117.5)"
       spreadMethod="pad"
       id="radialGradient402"><stop
         style="stop-opacity:1;stop-color:#f8cb3a"
         offset="0"
         id="stop384" /><stop
         style="stop-opacity:1;stop-color:#f8cb3a"
         offset="0.06482938"
         id="stop386" /><stop
         style="stop-opacity:1;stop-color:#ede481"
         offset="0.606383"
         id="stop388" /><stop
         style="stop-opacity:1;stop-color:#ede481"
         offset="0.60683446"
         id="stop390" /><stop
         style="stop-opacity:1;stop-color:#e7ec9a"
         offset="0.647143"
         id="stop392" /><stop
         style="stop-opacity:1;stop-color:#e7ec9a"
         offset="0.9291066"
         id="stop394" /><stop
         style="stop-opacity:1;stop-color:#f7d85b"
         offset="1"
         id="stop396" /><stop
         style="stop-opacity:1;stop-color:#f7d85b"
         offset="1"
         id="stop398" /><stop
         style="stop-opacity:1;stop-color:#f7d85b"
         offset="1"
         id="stop400" /></radialGradient><radialGradient
       fx="0"
       fy="0"
       cx="0"
       cy="0"
       r="1"
       gradientUnits="userSpaceOnUse"
       gradientTransform="matrix(-62.531994,9.4e-6,9.4e-6,62.531994,332.5,117.5)"
       spreadMethod="pad"
       id="radialGradient426"><stop
         style="stop-opacity:1;stop-color:#f8cb3a"
         offset="0"
         id="stop408" /><stop
         style="stop-opacity:1;stop-color:#f8cb3a"
         offset="0.06482938"
         id="stop410" /><stop
         style="stop-opacity:1;stop-color:#ede481"
         offset="0.606383"
         id="stop412" /><stop
         style="stop-opacity:1;stop-color:#ede481"
         offset="0.60683446"
         id="stop414" /><stop
         style="stop-opacity:1;stop-color:#e7ec9a"
         offset="0.647143"
         id="stop416" /><stop
         style="stop-opacity:1;stop-color:#e7ec9a"
         offset="0.9291066"
         id="stop418" /><stop
         style="stop-opacity:1;stop-color:#f7d85b"
         offset="1"
         id="stop420" /><stop
         style="stop-opacity:1;stop-color:#f7d85b"
         offset="1"
         id="stop422" /><stop
         style="stop-opacity:1;stop-color:#f7d85b"
         offset="1"
         id="stop424" /></radialGradient><radialGradient
       fx="0"
       fy="0"
       cx="0"
       cy="0"
       r="1"
       gradientUnits="userSpaceOnUse"
       gradientTransform="matrix(-62.790321,9.5e-6,9.5e-6,62.790321,468,117.5)"
       spreadMethod="pad"
       id="radialGradient450"><stop
         style="stop-opacity:1;stop-color:#f8cb3a"
         offset="0"
         id="stop432" /><stop
         style="stop-opacity:1;stop-color:#f8cb3a"
         offset="0.06482938"
         id="stop434" /><stop
         style="stop-opacity:1;stop-color:#ede481"
         offset="0.606383"
         id="stop436" /><stop
         style="stop-opacity:1;stop-color:#ede481"
         offset="0.60683446"
         id="stop438" /><stop
         style="stop-opacity:1;stop-color:#e7ec9a"
         offset="0.647143"
         id="stop440" /><stop
         style="stop-opacity:1;stop-color:#e7ec9a"
         offset="0.9291066"
         id="stop442" /><stop
         style="stop-opacity:1;stop-color:#f7d85b"
         offset="1"
         id="stop444" /><stop
         style="stop-opacity:1;stop-color:#f7d85b"
         offset="1"
         id="stop446" /><stop
         style="stop-opacity:1;stop-color:#f7d85b"
         offset="1"
         id="stop448" /></radialGradient><radialGradient
       fx="0"
       fy="0"
       cx="0"
       cy="0"
       r="1"
       gradientUnits="userSpaceOnUse"
       gradientTransform="matrix(-62.018143,9.4e-6,9.4e-6,62.018143,601.5,117.5)"
       spreadMethod="pad"
       id="radialGradient474"><stop
         style="stop-opacity:1;stop-color:#f8cb3a"
         offset="0"
         id="stop456" /><stop
         style="stop-opacity:1;stop-color:#f8cb3a"
         offset="0.06482938"
         id="stop458" /><stop
         style="stop-opacity:1;stop-color:#ede481"
         offset="0.606383"
         id="stop460" /><stop
         style="stop-opacity:1;stop-color:#ede481"
         offset="0.60683446"
         id="stop462" /><stop
         style="stop-opacity:1;stop-color:#e7ec9a"
         offset="0.647143"
         id="stop464" /><stop
         style="stop-opacity:1;stop-color:#e7ec9a"
         offset="0.9291066"
         id="stop466" /><stop
         style="stop-opacity:1;stop-color:#f7d85b"
         offset="1"
         id="stop468" /><stop
         style="stop-opacity:1;stop-color:#f7d85b"
         offset="1"
         id="stop470" /><stop
         style="stop-opacity:1;stop-color:#f7d85b"
         offset="1"
         id="stop472" /></radialGradient><radialGradient
       fx="0"
       fy="0"
       cx="0"
       cy="0"
       r="1"
       gradientUnits="userSpaceOnUse"
       gradientTransform="matrix(-62.790321,9.5e-6,9.5e-6,62.790321,735,117.5)"
       spreadMethod="pad"
       id="radialGradient498"><stop
         style="stop-opacity:1;stop-color:#f8cb3a"
         offset="0"
         id="stop480" /><stop
         style="stop-opacity:1;stop-color:#f8cb3a"
         offset="0.06482938"
         id="stop482" /><stop
         style="stop-opacity:1;stop-color:#ede481"
         offset="0.606383"
         id="stop484" /><stop
         style="stop-opacity:1;stop-color:#ede481"
         offset="0.60683446"
         id="stop486" /><stop
         style="stop-opacity:1;stop-color:#e7ec9a"
         offset="0.647143"
         id="stop488" /><stop
         style="stop-opacity:1;stop-color:#e7ec9a"
         offset="0.9291066"
         id="stop490" /><stop
         style="stop-opacity:1;stop-color:#f7d85b"
         offset="1"
         id="stop492" /><stop
         style="stop-opacity:1;stop-color:#f7d85b"
         offset="1"
         id="stop494" /><stop
         style="stop-opacity:1;stop-color:#f7d85b"
         offset="1"
         id="stop496" /></radialGradient><clipPath
       clipPathUnits="userSpaceOnUse"
       id="clipPath570"><path
         d="M 0,800 H 800 V 0 H 0 Z"
         id="path568"
         inkscape:connector-curvature="0" /></clipPath><clipPath
       clipPathUnits="userSpaceOnUse"
       id="clipPath822"><path
         d="M 0,800 H 800 V 0 H 0 Z"
         id="path820"
         inkscape:connector-curvature="0" /></clipPath></defs><sodipodi:namedview
     pagecolor="#ffffff"
     bordercolor="#666666"
     borderopacity="1"
     objecttolerance="10"
     gridtolerance="10"
     guidetolerance="10"
     inkscape:pageopacity="0"
     inkscape:pageshadow="2"
     inkscape:window-width="1366"
     inkscape:window-height="705"
     id="namedview4"
     showgrid="false"
     fit-margin-top="0"
     fit-margin-left="0"
     fit-margin-right="0"
     fit-margin-bottom="0"
     inkscape:zoom="10.012631"
     inkscape:cx="20.395197"
     inkscape:cy="18.744792"
     inkscape:window-x="-8"
     inkscape:window-y="-8"
     inkscape:window-maximized="1"
     inkscape:current-layer="g10" /><g
     id="g10"
     inkscape:groupmode="layer"
     inkscape:label="Silhouettes_06_"
     transform="matrix(1.3333333,0,0,-1.3333333,-346.12901,920.72148)"><circle
       style="opacity:0.36000001;fill:#00ffff;fill-opacity:1;stroke:#f9f9f9;stroke-width:1.97291338;stroke-miterlimit:4;stroke-dasharray:none;stroke-opacity:1"
       id="path1728"
       cx="270.60913"
       cy="-679.52875"
       r="10.025917"
       transform="scale(1,-1)" /><g
       id="g1103"
       transform="matrix(0.94185855,0,0,0.94185855,15.555535,39.479304)"
       style="stroke-width:1.0617305"><g
         style="fill:#000080;stroke-width:27.06515312"
         transform="matrix(0.03922869,0,0,0.03922869,269.89889,684.6633)"
         id="g840"><path
           inkscape:connector-curvature="0"
           id="path842"
           style="fill:#000080;fill-opacity:1;fill-rule:nonzero;stroke:none;stroke-width:27.06515312"
           d="m 0,0 c 0,0 2.236,14.224 9.02,17.364 0,0 11.12,7.808 20.508,-4.376 0,0 4.473,-4.789 3.7,-12.6 -0.04,-0.416 -1.012,-3.817 -0.619,-3.712 4.021,1.083 1.364,-4.745 0.387,-5.8 -1.934,-2.087 -1.934,-2.087 -3.241,-1.655 0,0 -4.772,-6.341 -5.77,-9.617 -1.1,-3.614 0.735,-4.817 0.735,-4.817 0,0 4.712,0.288 8.082,-2.038 3.371,-2.325 17.322,1.747 24.006,-2.322 6.683,-4.068 35.814,-2.051 38.43,-2.051 2.616,0 20.565,12.806 20.565,12.806 0,0 13.564,8.086 15.887,10.554 1.837,1.951 32.354,16.26 30.048,10.771 0,0 -10.567,-5.363 -11.728,-5.654 -0.339,-0.085 2.042,-0.734 1.921,-2.305 -0.08,-1.043 -2.634,-1.472 -1.59,-2.147 3.894,-2.519 -0.02,-3.267 0.821,-3.947 3.733,-3.018 -1.907,-4.656 -1.907,-4.656 0,0 -3.809,-1.163 -5.262,-1.163 -1.455,0 -4.36,-0.58 -4.36,-0.58 0,0 -1.162,-0.582 -2.906,-1.163 -1.743,-0.581 -4.069,-1.163 -4.069,-1.163 0,0 -0.292,0 -1.744,-1.453 -1.453,-1.453 -7.78,-8.512 -9.88,-10.543 -2.435,-2.356 -13.02,-9.287 -13.02,-9.287 0,0 -3.96,-2.349 -6.349,-4.082 -0.707,-0.513 -0.657,-2.005 -8.235,-0.923 -1.932,0.276 -10.078,-0.416 -10.078,-0.416 0,0 -13.825,-6.152 -31.195,1.324 0,0 -4.94,0.656 -5.232,-2.531 -0.291,-3.185 -1.743,-6.672 -2.615,-10.741 -0.871,-4.069 1.743,-11.625 1.743,-11.625 0,0 -9.299,-34.293 -9.589,-36.618 -0.291,-2.325 8.136,-9.301 8.428,-11.334 0.29,-2.035 0.872,-17.438 0.872,-17.438 0,0 -2.617,-12.205 -0.582,-14.24 0,0 1.452,-0.872 -1.453,-3.197 -2.907,-2.325 -2.616,-3.487 -2.616,-3.487 0,0 0.29,-18.019 -0.872,-24.122 -1.161,-6.103 -3.196,-33.131 -9.88,-34.584 0,0 -5.231,-1.162 -8.72,4.069 0,0 -3.778,2.906 -3.487,4.94 l 0.291,2.036 c 0,0 -3.488,6.683 -2.326,9.88 l -0.58,9.009 c 0,0 -2.036,1.453 -2.616,2.615 -0.581,1.163 -1.163,3.488 -1.163,3.488 0,0 -3.779,-15.112 -3.051,-18.018 0.727,-2.907 0,-9.882 0,-9.882 0,0 1.598,-5.159 0,-8.247 -1.6,-3.087 -1.89,-7.447 -1.89,-7.447 0,0 2.906,-7.846 1.89,-12.206 -1.018,-4.358 -3.633,-22.377 -3.633,-22.377 0,0 -0.872,-24.412 0,-26.156 0.873,-1.744 5.812,-6.683 5.232,-9.009 -0.583,-2.325 1.161,-3.779 2.034,-5.813 0.871,-2.032 -0.582,-6.103 -0.582,-6.103 0,0 3.197,-4.066 1.743,-4.649 -1.452,-0.582 -12.204,-4.068 -13.658,-5.23 -1.452,-1.164 -5.814,0.87 -6.394,2.615 -0.582,1.744 0.58,4.359 0,5.52 -0.582,1.163 -0.957,3.49 -0.957,3.49 l -0.932,4.357 v 4.36 c 0,0 2.034,1.743 0.726,3.488 -1.307,1.744 0.364,4.067 0.364,4.067 l 1.199,1.745 c 0,0 -6.302,45.046 -6.012,49.114 0.29,4.069 0.626,15.114 2.079,15.114 1.453,0 1.477,12.495 1.186,15.111 -0.292,2.615 -1.561,3.968 -2.713,6.875 -1.155,2.905 -8.642,24.843 -6.861,42.53 0.719,7.136 -0.27,-5.086 -6.102,1.935 -1.928,2.321 -4.861,0.36 -4.861,0.36 0,0 -10.082,-1.98 -1.981,9.001 2.623,3.555 3.232,11.37 3.211,12.388 -0.037,1.71 1.887,1.31 1.887,1.31 0,0 6.759,16.274 8.503,16.274 1.743,0 3.452,2.907 3.452,2.907 l -1.034,3.197 c 0,0 -2.941,4.069 -4.974,6.103 -2.035,2.035 -2.068,21.215 -2.068,21.215 v 17.438 c 0,0 1.477,9.008 1.477,10.172 0,1.162 -6.018,12.496 -7.761,13.658 -1.744,1.163 -23.018,1.691 -37.518,15.295 0,0 -2.033,0.759 -6.267,2.453 -0.881,0.353 -2.998,4.101 -3.978,4.688 -10.055,6.013 -22.816,20.87 -27.07,34.406 0,0 -2.399,4.189 -3.27,4.189 -0.873,0 -8.326,3.391 -10.124,4.466 -4.51,2.697 -8.393,7.426 -5.96,9.098 0.754,0.519 -0.861,2.408 -0.055,4.05 0.343,0.7 0.787,0.697 1.221,1.331 0.554,0.814 0.049,2.863 0.432,3.573 0.695,1.283 2.517,0.889 2.55,0.511 l -6.892,8.439 c 0,0 0.831,3.372 6.051,-1.909 2.149,-2.173 7.635,-6.224 11.951,-11.446 5.824,-7.044 10.427,-15.3 10.427,-15.3 0,0 9.845,-8.151 17.21,-15.592 9.015,-9.108 15.95,-17.901 16.793,-18.655 2.302,-2.052 8.203,-1.561 29.934,-10.73 1.797,-0.758 7.181,2.647 24.122,-5.51 0,0 4.578,2.505 9.009,4.365 2.733,1.148 0.872,5.525 0.872,5.525 0,0 -0.913,6.421 -1.743,6.685 -0.435,0.139 -1.745,2.037 -1.745,2.037 0,0 -1.311,6.519 -0.292,7.266 0.939,0.686 2.618,-0.291 2.618,-0.291 z" /></g><path
         inkscape:connector-curvature="0"
         id="path1869"
         d="m 271.3298,670.8829 c -0.50217,0.48393 -1.03613,1.00174 -1.18658,1.15069 l -0.27354,0.27081 0.2922,0.11174 c 0.20231,0.0774 0.28752,0.128 0.277,0.16458 -0.008,0.0291 -0.0278,0.13679 -0.0433,0.2394 -0.0453,0.30109 -0.0917,0.44112 -0.20051,0.60561 -0.10238,0.15471 -0.10243,0.15509 -0.0862,0.70741 0.009,0.30393 0.0476,0.74921 0.0858,0.9895 0.0561,0.35245 0.0617,0.47496 0.0292,0.63386 -0.0311,0.15188 -0.029,0.23551 0.009,0.36533 0.0323,0.10956 0.0441,0.29217 0.0338,0.52283 -0.014,0.312 0.0284,0.74524 0.0814,0.83093 0.0101,0.0164 0.0506,-0.0112 0.09,-0.0613 0.0527,-0.0669 0.0716,-0.1507 0.0716,-0.31597 0,-0.12369 0.0187,-0.27216 0.0416,-0.32993 0.0229,-0.0578 0.0439,-0.14207 0.0466,-0.18734 0.003,-0.0453 0.0695,-0.1502 0.14814,-0.2332 0.17586,-0.18549 0.35803,-0.20923 0.45618,-0.0594 0.15427,0.23544 0.31446,1.16837 0.31474,1.83294 1.5e-4,0.38021 0.007,0.41958 0.0841,0.49215 0.081,0.0761 0.084,0.10252 0.084,0.74343 v 0.66454 l -0.17459,0.21275 -0.17458,0.21274 0.14718,0.55217 c 0.081,0.30369 0.16551,0.62275 0.18791,0.70904 0.0281,0.10804 0.0293,0.22314 0.004,0.36972 -0.0203,0.11785 -0.0232,0.26433 -0.006,0.32819 0.0167,0.0634 0.0488,0.1867 0.0714,0.27392 0.0357,0.13763 0.0545,0.15852 0.14231,0.15817 0.0556,-2.2e-4 0.18359,-0.0254 0.28433,-0.056 0.21256,-0.0645 0.69159,-0.0733 0.88049,-0.0162 0.0717,0.0217 0.27307,0.0401 0.44751,0.0409 l 0.31716,0.002 0.40427,0.26474 c 0.24972,0.16352 0.49351,0.36113 0.63771,0.51687 0.23354,0.25224 0.43009,0.36296 0.65574,0.36936 0.0513,10e-4 0.15205,0.0227 0.22387,0.0472 0.11711,0.0399 0.13101,0.0591 0.13458,0.18556 0.002,0.0776 -0.0122,0.15102 -0.032,0.16324 -0.0211,0.013 -0.016,0.0345 0.0123,0.052 0.0354,0.0219 0.0374,0.043 0.007,0.0793 -0.0321,0.0389 0.003,0.0685 0.16229,0.13863 l 0.20307,0.0891 0.28786,-0.27669 c 1.69029,-1.62474 3.66229,-3.55425 3.68018,-3.60087 0.0123,-0.0321 0.0423,-0.3407 0.0667,-0.68569 0.11798,-1.67166 -0.25022,-3.48199 -1.01179,-4.97469 -0.46939,-0.92002 -0.97638,-1.62676 -1.70033,-2.37027 -1.10867,-1.13861 -2.30298,-1.90434 -3.76923,-2.41661 -0.36172,-0.12637 -1.35338,-0.38672 -1.47301,-0.38672 -0.0325,0 -0.46992,0.39594 -0.97209,0.87988 z"
         style="opacity:0.36000001;fill:#008080;fill-opacity:1;stroke:#f9f9f9;stroke-width:0;stroke-miterlimit:4;stroke-dasharray:none;stroke-opacity:1" /></g><g
       transform="translate(-15.665343,-15.04284)"
       id="g1023"><g
         style="stroke-width:0.68892372"
         id="g1082"
         transform="matrix(1.4515395,0,0,1.4515395,-115.63214,-313.71234)"><g
           transform="matrix(0.49389985,0,0,-0.49389985,134.52851,815.61122)"
           id="g2229"
           style="fill:#000080;stroke-width:1.0461489"><path
             inkscape:connector-curvature="0"
             d="m 302.00625,322.4475 h 21.69625 l 1.81875,2.025 h -25.3325 l 1.8175,-2.025"
             style="fill:#000080;fill-opacity:1;fill-rule:evenodd;stroke:none;stroke-width:0.13076861"
             id="path150" /><path
             inkscape:connector-curvature="0"
             d="m 324.70625,323.56375 0.815,0.90875 h -25.3325 l 0.81375,-0.90875 h 23.70375"
             style="fill:#000080;fill-opacity:1;fill-rule:evenodd;stroke:none;stroke-width:0.13076861"
             id="path152" /><path
             inkscape:connector-curvature="0"
             d="m 300.19125,342.4975 h 25.32713 v -18.06638 h -25.32713 z"
             style="fill:#000080;fill-opacity:1;fill-rule:evenodd;stroke:none;stroke-width:0.13076861"
             id="path154" /><path
             inkscape:connector-curvature="0"
             d="m 298,342.4975 h 29.70875 l 3.03,2.35125 H 294.97 L 298,342.4975"
             style="fill:#000080;fill-opacity:1;fill-rule:evenodd;stroke:none;stroke-width:0.13076861"
             id="path156" /><path
             inkscape:connector-curvature="0"
             d="m 329.3075,343.7375 1.43125,1.11125 H 294.97 l 1.4325,-1.11125 h 32.905"
             style="fill:#000080;fill-opacity:1;fill-rule:evenodd;stroke:none;stroke-width:0.13076861"
             id="path158" /><path
             inkscape:connector-curvature="0"
             d="M 294.95375,347.84125 H 330.755 v -2.99268 h -35.80125 z"
             style="fill:#000080;fill-opacity:1;fill-rule:evenodd;stroke:none;stroke-width:0.13076861"
             id="path160" /><path
             inkscape:connector-curvature="0"
             d="M 301.48375,340.4725 H 324.225 v -9.77833 h -22.74125 z"
             style="fill:#000080;fill-opacity:1;fill-rule:evenodd;stroke:none;stroke-width:0.13076861"
             id="path162" /><path
             inkscape:connector-curvature="0"
             d="m 327.03,278.78375 c -1.1975,6.0725 -2.2,13.50875 -4.22625,18.95625 -1.94375,5.225 -4.7175,5.90875 -6.65625,9.53875 -1.505,2.82125 -0.735,4.95375 0.5225,7.30625 0.60625,1.13125 1.02125,1.5725 0.0462,2.0875 0.38625,2.11125 3.335,4.5775 5.10375,5.0775 l 0.0537,0.855 c -2.51,0.63125 -15.33875,0.75625 -18.0375,0 l 0.0537,-0.855 c 1.76875,-0.5 4.71625,-2.96625 5.10375,-5.0775 -0.975,-0.515 -0.56,-0.95625 0.045,-2.0875 1.25875,-2.3525 2.0275,-4.485 0.52125,-7.30625 -1.9375,-3.63 -4.7125,-4.31375 -6.65375,-9.53875 -2.02625,-5.4475 -3.02875,-12.88375 -4.22625,-18.95625 4.59375,-1.21125 23.75625,-1.21125 28.35,0"
             style="fill:#000080;fill-opacity:1;fill-rule:evenodd;stroke:none;stroke-width:0.13076861"
             id="path164" /><path
             inkscape:connector-curvature="0"
             d="m 326.875,279.67875 c 1.89,-2.64875 8.24625,-2.55125 8.74625,3.09625 0.62375,7.03125 -7.79875,12.96 -14.03625,16.27625 l 1.01625,-2.45875 c 4.2325,-3.08625 8.845,-5.53625 10.14,-10.925 0.5975,-2.48625 -0.21125,-5.28875 -2.61375,-4.94125 -1.19125,0.17125 -1.44625,0.56375 -1.64,1.05 -0.4325,1.08875 -1.20375,2.11625 -1.995,2.39375 -1.37625,0.485 -2.48375,-0.80875 0.3825,-4.49125"
             style="fill:#000080;fill-opacity:1;fill-rule:evenodd;stroke:none;stroke-width:0.13076861"
             id="path166" /><path
             inkscape:connector-curvature="0"
             d="m 298.83375,279.67875 c -1.89,-2.64875 -8.245,-2.55125 -8.74625,3.09625 -0.6225,7.03125 7.79875,12.96 14.03625,16.27625 l -1.015,-2.45875 c -4.23375,-3.08625 -8.845,-5.53625 -10.14,-10.925 -0.59875,-2.48625 0.21,-5.28875 2.6125,-4.94125 1.19125,0.17125 1.4475,0.56375 1.64125,1.05 0.4325,1.08875 1.20375,2.11625 1.995,2.39375 1.375,0.485 2.48375,-0.80875 -0.38375,-4.49125"
             style="fill:#000080;fill-opacity:1;fill-rule:evenodd;stroke:none;stroke-width:0.13076861"
             id="path168" /><path
             inkscape:connector-curvature="0"
             d="m 300.19125,342.4975 h 25.32713 v -1.03516 h -25.32713 z"
             style="fill:#000080;fill-opacity:1;fill-rule:evenodd;stroke:none;stroke-width:0.13076861"
             id="path170" /><path
             inkscape:connector-curvature="0"
             d="m 312.855,322.4475 h 10.8475 l 1.81875,2.025 H 312.855 v -2.025"
             style="fill:#000080;fill-opacity:1;fill-rule:evenodd;stroke:none;stroke-width:0.13076861"
             id="path172" /><path
             inkscape:connector-curvature="0"
             d="m 324.70625,323.56375 0.815,0.90875 H 312.855 v -0.90875 h 11.85125"
             style="fill:#000080;fill-opacity:1;fill-rule:evenodd;stroke:none;stroke-width:0.13076861"
             id="path174" /><path
             inkscape:connector-curvature="0"
             d="m 312.855,342.4975 h 12.66363 V 324.43112 H 312.855 Z"
             style="fill:#000080;fill-opacity:1;fill-rule:evenodd;stroke:none;stroke-width:0.13076861"
             id="path176" /><path
             inkscape:connector-curvature="0"
             d="m 312.855,342.4975 h 14.85375 l 3.03,2.35125 H 312.855 v -2.35125"
             style="fill:#000080;fill-opacity:1;fill-rule:evenodd;stroke:none;stroke-width:0.13076861"
             id="path178" /><path
             inkscape:connector-curvature="0"
             d="m 329.3075,343.7375 1.43125,1.11125 H 312.855 v -1.11125 h 16.4525"
             style="fill:#000080;fill-opacity:1;fill-rule:evenodd;stroke:none;stroke-width:0.13076861"
             id="path180" /><path
             inkscape:connector-curvature="0"
             d="m 312.855,347.84125 h 17.89988 v -2.99268 H 312.855 Z"
             style="fill:#000080;fill-opacity:1;fill-rule:evenodd;stroke:none;stroke-width:0.13076861"
             id="path182" /><path
             inkscape:connector-curvature="0"
             d="m 312.855,340.4725 h 11.37011 v -9.77833 H 312.855 Z"
             style="fill:#000080;fill-opacity:1;fill-rule:evenodd;stroke:none;stroke-width:0.13076861"
             id="path184" /><path
             inkscape:connector-curvature="0"
             d="m 327.03,278.78375 c -1.1975,6.0725 -2.2,13.50875 -4.22625,18.95625 -1.94375,5.225 -4.7175,5.90875 -6.65625,9.53875 -1.505,2.82125 -0.735,4.95375 0.5225,7.30625 0.60625,1.13125 1.02125,1.5725 0.0462,2.0875 0.38625,2.11125 3.335,4.5775 5.10375,5.0775 l 0.0537,0.855 c -1.2625,0.3175 -5.1375,0.5075 -9.01875,0.52125 V 277.875 c 5.93875,0 11.8775,0.30375 14.175,0.90875"
             style="fill:#000080;fill-opacity:1;fill-rule:evenodd;stroke:none;stroke-width:0.13076861"
             id="path186" /><path
             inkscape:connector-curvature="0"
             d="m 326.875,279.67875 c 1.89,-2.64875 8.24625,-2.55125 8.74625,3.09625 0.62375,7.03125 -7.79875,12.96 -14.03625,16.27625 l 1.01625,-2.45875 c 4.2325,-3.08625 8.845,-5.53625 10.14,-10.925 0.5975,-2.48625 -0.21125,-5.28875 -2.61375,-4.94125 -1.19125,0.17125 -1.44625,0.56375 -1.64,1.05 -0.4325,1.08875 -1.20375,2.11625 -1.995,2.39375 -1.37625,0.485 -2.48375,-0.80875 0.3825,-4.49125"
             style="fill:#000080;fill-opacity:1;fill-rule:evenodd;stroke:none;stroke-width:0.13076861"
             id="path188" /><path
             inkscape:connector-curvature="0"
             d="m 312.855,342.4975 h 12.66363 v -1.03516 H 312.855 Z"
             style="fill:#000080;fill-opacity:1;fill-rule:evenodd;stroke:none;stroke-width:0.13076861"
             id="path190" /></g><path
           style="opacity:0.36000001;fill:#008080;fill-opacity:1;stroke:#f9f9f9;stroke-width:0;stroke-miterlimit:4;stroke-dasharray:none;stroke-opacity:1"
           d="m 286.18564,638.76504 -5.71324,4.9707 8.74691,0.0387 8.74691,0.0386 -0.004,0.78531 c -0.004,0.77191 -0.0176,0.7949 -0.77937,1.3471 -0.52271,0.37894 -0.93573,0.56179 -1.26897,0.56179 h -0.49403 v 4.46494 4.46493 l -0.49402,0.47882 c -0.30803,0.29856 -0.64642,0.47882 -0.89886,0.47882 -0.22267,0 -0.40485,0.066 -0.40485,0.14677 0,0.0807 -0.26039,0.27961 -0.57865,0.44197 -0.59754,0.30484 -1.96989,1.70921 -1.96584,2.0117 10e-4,0.0941 0.0634,0.26766 0.13814,0.38573 0.0929,0.14684 -0.012,0.50183 -0.3321,1.12358 -0.36657,0.71202 -0.4694,1.10363 -0.47467,1.80778 -0.008,1.10145 0.33832,1.75285 1.79541,3.37469 0.55325,0.6158 1.14417,1.40299 1.31316,1.74932 0.24369,0.49941 0.55751,0.78306 1.51675,1.37094 3.50264,2.14662 5.44188,4.71313 5.29911,7.01317 l -0.0574,0.92401 2.77781,-2.67454 c 1.5278,-1.471 5.18686,-5.08901 8.13123,-8.04002 l 5.35342,-5.36549 -0.15464,-1.79773 c -0.82967,-9.6453 -6.44519,-17.95629 -15.08037,-22.31899 -2.49317,-1.25961 -6.05262,-2.34904 -8.73007,-2.67198 l -0.67415,-0.0813 z"
           id="path1757"
           inkscape:connector-curvature="0" /><path
           style="opacity:0.36000001;fill:#008080;fill-opacity:1;stroke:#f9f9f9;stroke-width:0;stroke-miterlimit:4;stroke-dasharray:none;stroke-opacity:1"
           d="m 294.59787,670.17836 c 0.0593,0.15465 0.31744,1.31634 0.57354,2.58153 0.37044,1.83004 0.56704,2.38011 0.96157,2.69044 0.27276,0.21456 0.55558,0.57807 0.6285,0.80781 0.19017,0.59916 1.08246,0.76971 1.59592,0.30503 0.67737,-0.61301 0.56102,-2.09832 -0.27337,-3.48985 -0.87478,-1.4589 -3.89869,-3.97 -3.48616,-2.89496 z"
           id="path1759"
           inkscape:connector-curvature="0" /></g></g></g></svg>