<?xml version="1.0" encoding="UTF-8" standalone="no"?>
<!-- Created with Inkscape (http://www.inkscape.org/) -->

<svg
   xmlns:dc="http://purl.org/dc/elements/1.1/"
   xmlns:cc="http://creativecommons.org/ns#"
   xmlns:rdf="http://www.w3.org/1999/02/22-rdf-syntax-ns#"
   xmlns:svg="http://www.w3.org/2000/svg"
   xmlns="http://www.w3.org/2000/svg"
   xmlns:sodipodi="http://sodipodi.sourceforge.net/DTD/sodipodi-0.dtd"
   xmlns:inkscape="http://www.inkscape.org/namespaces/inkscape"
   width="137.56703"
   height="137.56703"
   viewBox="0 0 36.397943 36.397945"
   version="1.1"
   id="svg8"
   inkscape:version="0.92.2 (5c3e80d, 2017-08-06)"
   sodipodi:docname="3stars.svg">
  <defs
     id="defs2" />
  <sodipodi:namedview
     id="base"
     pagecolor="#ffffff"
     bordercolor="#666666"
     borderopacity="1.0"
     inkscape:pageopacity="0.0"
     inkscape:pageshadow="2"
     inkscape:zoom="1.455728"
     inkscape:cx="70.454452"
     inkscape:cy="22.129788"
     inkscape:document-units="px"
     inkscape:current-layer="layer1"
     showgrid="false"
     inkscape:window-width="1366"
     inkscape:window-height="705"
     inkscape:window-x="-8"
     inkscape:window-y="-8"
     inkscape:window-maximized="1"
     units="px"
     borderlayer="true"
     showborder="false"
     fit-margin-top="0"
     fit-margin-left="0"
     fit-margin-right="0"
     fit-margin-bottom="0" />
  <metadata
     id="metadata5">
    <rdf:RDF>
      <cc:Work
         rdf:about="">
        <dc:format>image/svg+xml</dc:format>
        <dc:type
           rdf:resource="http://purl.org/dc/dcmitype/StillImage" />
        <dc:title></dc:title>
      </cc:Work>
    </rdf:RDF>
  </metadata>
  <g
     inkscape:label="Layer 1"
     inkscape:groupmode="layer"
     id="layer1"
     transform="translate(-38.378006,-45.438339)">
    <g
       id="g3791"
       transform="matrix(0.66035765,0,0,0.66035765,13.034796,15.432784)">
      <circle
         r="27.559265"
         cy="72.997604"
         cx="65.937271"
         id="path10"
         style="fill:#ececec;stroke-width:0.31971225" />
      <path
         inkscape:connector-curvature="0"
         id="path3707"
         d="m 60.200818,66.179077 c 0,-0.02657 0.226281,-1.444127 0.502848,-3.150121 0.276565,-1.705995 0.502846,-3.138694 0.502846,-3.183775 0,-0.04508 -1.048038,-1.086668 -2.328974,-2.314634 -1.280936,-1.227967 -2.328922,-2.247304 -2.328858,-2.265191 6.4e-5,-0.01789 1.464095,-0.25787 3.253401,-0.533292 l 3.253286,-0.500768 0.412087,0.120308 c 0.226646,0.06617 0.658019,0.237313 0.958605,0.380321 2.837595,1.350025 5.099967,4.28738 6.495676,8.433668 0.296395,0.880514 0.845916,2.881495 0.803094,2.924318 -0.0081,0.0081 -1.308971,-0.648943 -2.890893,-1.460025 l -2.876223,-1.474695 -2.798146,1.505284 c -1.53898,0.827908 -2.834283,1.519151 -2.878448,1.536099 -0.04416,0.01695 -0.0803,0.0091 -0.0803,-0.01749 z"
         style="fill:#4d4d4d;stroke-width:0.05293123" />
      <path
         inkscape:connector-curvature="0"
         id="path3705"
         d="m 71.454788,64.338079 c -0.203384,-0.765675 -0.643351,-2.027951 -1.001376,-2.872975 -0.250483,-0.59121 -0.77831,-1.636821 -1.089616,-2.158509 -1.094168,-1.833602 -2.40971,-3.245291 -3.914031,-4.200086 -0.679906,-0.431539 -1.497707,-0.801704 -2.137117,-0.96734 -0.13131,-0.03402 -0.238745,-0.07429 -0.238745,-0.0895 0,-0.05417 2.75276,-5.742644 2.770517,-5.725163 0.0099,0.0098 0.679411,1.327861 1.487694,2.929031 l 1.4696,2.911216 1.026539,0.139542 c 0.564597,0.07675 1.991214,0.270176 3.170255,0.42984 1.179046,0.159663 2.185036,0.297383 2.235534,0.306045 l 0.09182,0.01576 -2.3361,2.32007 -2.336104,2.320067 0.437824,2.408374 c 0.240803,1.324604 0.43434,2.419065 0.430082,2.432132 -0.0042,0.01307 -0.0343,-0.07625 -0.06678,-0.198492 z"
         style="fill:#333333;stroke-width:0.02646562" />
      <path
         inkscape:connector-curvature="0"
         id="path3707-3"
         d="m 48.386855,88.638557 c 0,-0.02657 0.226281,-1.444127 0.502847,-3.150121 0.276566,-1.705995 0.502846,-3.138694 0.502846,-3.183775 0,-0.04508 -1.048038,-1.086667 -2.328973,-2.314634 -1.280936,-1.227967 -2.328922,-2.247303 -2.328859,-2.265191 6.5e-5,-0.01789 1.464095,-0.257869 3.253402,-0.533291 l 3.253285,-0.500769 0.412087,0.120308 c 0.226646,0.06617 0.658019,0.237313 0.958605,0.380321 2.837596,1.350026 5.099968,4.28738 6.495676,8.433668 0.296395,0.880514 0.845917,2.881495 0.803094,2.924318 -0.0081,0.0081 -1.308971,-0.648943 -2.890893,-1.460025 l -2.876223,-1.474695 -2.798145,1.505284 c -1.538981,0.827908 -2.834283,1.519151 -2.878448,1.536099 -0.04417,0.01695 -0.0803,0.0091 -0.0803,-0.01749 z"
         style="fill:#4d4d4d;stroke-width:0.05293123" />
      <path
         inkscape:connector-curvature="0"
         id="path3705-7"
         d="m 59.640824,86.797559 c -0.203384,-0.765675 -0.643351,-2.027951 -1.001376,-2.872975 -0.250482,-0.59121 -0.77831,-1.636821 -1.089616,-2.158509 -1.094168,-1.833602 -2.409709,-3.24529 -3.914031,-4.200086 -0.679906,-0.431539 -1.497707,-0.801704 -2.137117,-0.96734 -0.131309,-0.03402 -0.238745,-0.07429 -0.238745,-0.0895 0,-0.05417 2.752761,-5.742644 2.770517,-5.725163 0.0099,0.0098 0.679411,1.327861 1.487694,2.929031 l 1.4696,2.911215 1.02654,0.139542 c 0.564596,0.07675 1.991213,0.270177 3.170255,0.42984 1.179045,0.159663 2.185035,0.297383 2.235533,0.306046 l 0.09182,0.01576 -2.3361,2.32007 -2.336104,2.320067 0.437825,2.408374 c 0.240802,1.324604 0.434339,2.419065 0.430081,2.432132 -0.0042,0.01307 -0.0343,-0.07625 -0.06678,-0.198492 z"
         style="fill:#333333;stroke-width:0.02646562" />
      <path
         inkscape:connector-curvature="0"
         id="path3707-1"
         d="m 72.014781,88.638557 c 0,-0.02657 0.226281,-1.444127 0.502847,-3.150121 0.276566,-1.705995 0.502846,-3.138694 0.502846,-3.183775 0,-0.04508 -1.048038,-1.086667 -2.328973,-2.314634 -1.280936,-1.227967 -2.328922,-2.247303 -2.328859,-2.265191 6.5e-5,-0.01789 1.464095,-0.257869 3.253402,-0.533291 l 3.253285,-0.500769 0.412087,0.120308 c 0.226646,0.06617 0.658019,0.237313 0.958605,0.380321 2.837596,1.350026 5.099968,4.28738 6.495676,8.433668 0.296395,0.880514 0.845917,2.881495 0.803094,2.924318 -0.0081,0.0081 -1.308971,-0.648943 -2.890893,-1.460025 l -2.876223,-1.474695 -2.798145,1.505284 c -1.538981,0.827908 -2.834283,1.519151 -2.878448,1.536099 -0.04417,0.01695 -0.0803,0.0091 -0.0803,-0.01749 z"
         style="fill:#4d4d4d;stroke-width:0.05293123" />
      <path
         inkscape:connector-curvature="0"
         id="path3705-9"
         d="m 83.26875,86.797559 c -0.203384,-0.765675 -0.643351,-2.027951 -1.001376,-2.872975 -0.250482,-0.59121 -0.77831,-1.636821 -1.089616,-2.158509 -1.094168,-1.833602 -2.409709,-3.24529 -3.914031,-4.200086 -0.679906,-0.431539 -1.497707,-0.801704 -2.137117,-0.96734 -0.131309,-0.03402 -0.238745,-0.07429 -0.238745,-0.0895 0,-0.05417 2.752761,-5.742644 2.770517,-5.725163 0.0099,0.0098 0.679411,1.327861 1.487694,2.929031 l 1.4696,2.911215 1.02654,0.139542 c 0.564596,0.07675 1.991213,0.270177 3.170255,0.42984 1.179045,0.159663 2.185035,0.297383 2.235533,0.306046 l 0.09182,0.01576 -2.3361,2.32007 -2.336104,2.320067 0.437825,2.408374 c 0.240802,1.324604 0.434339,2.419065 0.430081,2.432132 -0.0042,0.01307 -0.0343,-0.07625 -0.06678,-0.198492 z"
         style="fill:#333333;stroke-width:0.02646562" />
    </g>
  </g>
</svg>
